<svg preserveAspectRatio="none" width="100%" height="100%" overflow="visible" style="display: block;" viewBox="0 0 495.866 490.6" fill="none" xmlns="http://www.w3.org/2000/svg">
<g id="Group">
<path id="Vector" d="M247.935 291.636C271.378 291.636 290.381 272.632 290.381 249.19C290.381 225.748 271.378 206.744 247.935 206.744C224.493 206.744 205.489 225.748 205.489 249.19C205.489 272.632 224.493 291.636 247.935 291.636Z" fill="var(--fill-0, #F2594B)"/>
<g id="Group_2">
<path id="Vector_2" d="M96.6092 274.272L0 274.195C3.55744 309.711 14.8016 344.281 32.805 375.02L155.735 373.835L87.0941 439.526C115.617 463.622 149.331 481.09 185.41 490.416C209.272 466.234 222.907 434.667 223.839 401.444L223.97 396.972C221.462 328.885 165.295 274.267 96.6046 274.267L96.6092 274.272Z" fill="var(--fill-0, #F2594B)"/>
<path id="Vector_3" d="M398.406 274.272C329.324 274.272 272.9 329.52 270.996 398.143L271.176 401.448C272.103 434.748 285.806 466.378 309.763 490.6C345.927 481.36 379.727 463.978 408.322 439.927L339.276 373.84L463.052 375.033C481.064 344.286 492.304 309.716 495.866 274.191L487.751 274.277H398.406V274.272Z" fill="var(--fill-0, #F2594B)"/>
<path id="Vector_4" d="M154.78 216.507C156.415 214.872 157.937 212.837 159.54 210.676C162.386 206.852 164.403 203.462 165.849 200.12C167.456 196.428 168.636 192.465 169.361 188.318C170 184.72 170.289 181.793 170.289 179.068C170.289 164.924 164.777 151.636 154.775 141.634L79.1012 65.9689C52.4384 90.5647 31.3279 120.803 17.553 154.162L79.9027 216.511C100.554 237.163 134.147 237.145 154.78 216.511V216.507Z" fill="var(--fill-0, #F2594B)"/>
<path id="Vector_5" d="M329.324 200.43C330.819 203.821 332.854 207.194 335.552 210.742C337.375 213.174 338.659 214.939 340.23 216.506C360.873 237.149 394.475 237.149 415.117 216.506L478.065 153.549C464.205 120.231 443.018 90.0554 416.319 65.5451L340.23 141.634C330.229 151.635 324.717 164.933 324.717 179.068C324.717 181.999 325.037 185.16 325.676 188.722C326.401 192.649 327.631 196.594 329.329 200.435L329.324 200.43Z" fill="var(--fill-0, #F2594B)"/>
<path id="Vector_6" d="M195.002 5.65024V106.821C195.002 136.019 218.751 159.777 247.94 159.777C277.129 159.777 300.878 136.019 300.878 106.821V5.65024C266.11 -1.88341 229.747 -1.88341 195.002 5.65024Z" fill="var(--fill-0, #F2594B)"/>
</g>
</g>
</svg>
