<svg preserveAspectRatio="none" width="100%" height="100%" overflow="visible" style="display: block;" viewBox="0 0 540.16 534.434" fill="none" xmlns="http://www.w3.org/2000/svg">
<g id="Group">
<path id="Vector" d="M270.085 317.695C295.621 317.695 316.323 296.994 316.323 271.457C316.323 245.921 295.621 225.219 270.085 225.219C244.548 225.219 223.847 245.921 223.847 271.457C223.847 296.994 244.548 317.695 270.085 317.695Z" fill="var(--fill-0, #F2594B)"/>
<g id="Group_2">
<path id="Vector_2" d="M105.24 298.78L0 298.696C3.87524 337.385 16.1239 375.044 35.7356 408.528L169.647 407.237L94.8747 478.797C125.945 505.046 162.672 524.074 201.974 534.233C227.967 507.891 242.821 473.504 243.836 437.312L243.978 432.441C241.246 358.272 180.061 298.775 105.235 298.775L105.24 298.78Z" fill="var(--fill-0, #F2594B)"/>
<path id="Vector_3" d="M433.993 298.78C358.739 298.78 297.275 358.964 295.2 433.717L295.396 437.317C296.407 473.593 311.334 508.048 337.43 534.434C376.825 524.368 413.645 505.433 444.794 479.234L369.58 407.243L504.414 408.543C524.036 375.049 536.279 337.39 540.16 298.692L531.32 298.785H433.993V298.78Z" fill="var(--fill-0, #F2594B)"/>
<path id="Vector_4" d="M168.602 235.854C170.383 234.073 172.041 231.856 173.787 229.501C176.887 225.337 179.085 221.643 180.66 218.003C182.411 213.981 183.696 209.664 184.486 205.146C185.182 201.227 185.496 198.038 185.496 195.071C185.496 179.663 179.492 165.187 168.597 154.292L86.1627 71.8673C57.118 98.6604 34.1216 131.6 19.1161 167.939L87.0358 235.859C109.532 258.355 146.126 258.335 168.602 235.859V235.854Z" fill="var(--fill-0, #F2594B)"/>
<path id="Vector_5" d="M358.739 218.342C360.368 222.035 362.585 225.709 365.523 229.575C367.51 232.224 368.908 234.147 370.62 235.854C393.106 258.34 429.71 258.34 452.196 235.854L520.768 167.272C505.67 130.977 482.59 98.106 453.506 71.4061L370.62 154.292C359.725 165.187 353.721 179.673 353.721 195.07C353.721 198.264 354.069 201.707 354.766 205.588C355.556 209.865 356.895 214.162 358.744 218.346L358.739 218.342Z" fill="var(--fill-0, #F2594B)"/>
<path id="Vector_6" d="M212.417 6.15501V116.364C212.417 148.17 238.288 174.051 270.085 174.051C301.881 174.051 327.752 148.17 327.752 116.364V6.15501C289.878 -2.05167 250.267 -2.05167 212.417 6.15501Z" fill="var(--fill-0, #F2594B)"/>
</g>
</g>
</svg>
