<svg preserveAspectRatio="none" width="100%" height="100%" overflow="visible" style="display: block;" viewBox="0 0 51.56 51.015" fill="none" xmlns="http://www.w3.org/2000/svg">
<g id="Group">
<path id="Vector" d="M10.05 28.525H0C0.37 32.215 1.54003 35.805 3.41003 39.005L16.19 38.885L9.04999 45.715C12.02 48.225 15.52 50.035 19.27 51.005C21.75 48.495 23.17 45.205 23.27 41.755V41.295C23.02 34.215 17.18 28.535 10.04 28.535L10.05 28.525Z" fill="var(--fill-0, #592E25)"/>
<path id="Vector_2" d="M41.43 28.525C34.25 28.525 28.38 34.275 28.18 41.405L28.2 41.745C28.3 45.205 29.72 48.495 32.21 51.015C35.97 50.055 39.49 48.245 42.46 45.745L35.28 38.875L48.15 38.995C50.02 35.795 51.19 32.205 51.56 28.505H50.72H41.43V28.525Z" fill="var(--fill-0, #592E25)"/>
<path id="Vector_3" d="M16.09 22.515C16.26 22.345 16.42 22.135 16.59 21.905C16.89 21.505 17.1 21.155 17.25 20.805C17.42 20.425 17.54 20.005 17.62 19.575C17.69 19.205 17.72 18.895 17.72 18.615C17.72 17.145 17.15 15.765 16.11 14.725L8.23999 6.855C5.46999 9.415 3.27003 12.555 1.84003 16.025L8.32001 22.505C10.47 24.655 13.96 24.655 16.11 22.505L16.09 22.515Z" fill="var(--fill-0, #592E25)"/>
<path id="Vector_4" d="M34.25 20.845C34.41 21.195 34.62 21.545 34.9 21.915C35.09 22.165 35.22 22.355 35.39 22.515C37.54 24.665 41.03 24.665 43.18 22.515L49.73 15.965C48.29 12.505 46.09 9.365 43.31 6.815L35.4 14.725C34.36 15.765 33.79 17.145 33.79 18.615C33.79 18.915 33.82 19.245 33.89 19.615C33.97 20.025 34.09 20.435 34.27 20.835L34.25 20.845Z" fill="var(--fill-0, #592E25)"/>
<path id="Vector_5" d="M20.28 0.585V11.105C20.28 14.145 22.75 16.615 25.78 16.615C28.81 16.615 31.28 14.145 31.28 11.105V0.585C27.66 -0.195 23.88 -0.195 20.27 0.585H20.28Z" fill="var(--fill-0, #592E25)"/>
</g>
</svg>
