<svg preserveAspectRatio="none" width="100%" height="100%" overflow="visible" style="display: block;" viewBox="0 0 51.56 51.005" fill="none" xmlns="http://www.w3.org/2000/svg">
<g id="Group">
<path id="Vector" d="M10.05 28.515H0C0.37 32.205 1.54003 35.795 3.41003 38.995L16.19 38.875L9.04999 45.705C12.02 48.215 15.52 50.025 19.27 50.995C21.75 48.485 23.17 45.195 23.27 41.745V41.285C23.02 34.205 17.18 28.525 10.04 28.525L10.05 28.515Z" fill="var(--fill-0, #D6D6D6)"/>
<path id="Vector_2" d="M41.43 28.515C34.25 28.515 28.38 34.265 28.18 41.395L28.2 41.735C28.3 45.195 29.72 48.485 32.21 51.005C35.97 50.045 39.49 48.235 42.46 45.735L35.28 38.865L48.15 38.985C50.02 35.785 51.19 32.195 51.56 28.495H50.72H41.43V28.515Z" fill="var(--fill-0, #D6D6D6)"/>
<path id="Vector_3" d="M16.09 22.505C16.26 22.335 16.42 22.125 16.59 21.895C16.89 21.495 17.1 21.145 17.25 20.795C17.42 20.415 17.54 19.995 17.62 19.565C17.69 19.195 17.72 18.885 17.72 18.605C17.72 17.135 17.15 15.755 16.11 14.715L8.23999 6.845C5.46999 9.405 3.27003 12.545 1.84003 16.015L8.32001 22.495C10.47 24.645 13.96 24.645 16.11 22.495L16.09 22.505Z" fill="var(--fill-0, #D6D6D6)"/>
<path id="Vector_4" d="M34.25 20.835C34.41 21.185 34.62 21.535 34.9 21.905C35.09 22.155 35.22 22.345 35.39 22.505C37.54 24.655 41.03 24.655 43.18 22.505L49.73 15.955C48.29 12.495 46.09 9.35499 43.31 6.80499L35.4 14.715C34.36 15.755 33.79 17.135 33.79 18.605C33.79 18.905 33.82 19.235 33.89 19.605C33.97 20.015 34.09 20.425 34.27 20.825L34.25 20.835Z" fill="var(--fill-0, #D6D6D6)"/>
<path id="Vector_5" d="M20.28 0.585V11.105C20.28 14.145 22.75 16.615 25.78 16.615C28.81 16.615 31.28 14.145 31.28 11.105V0.585C27.66 -0.195 23.88 -0.195 20.27 0.585H20.28Z" fill="var(--fill-0, #D6D6D6)"/>
</g>
</svg>
