<svg preserveAspectRatio="none" width="100%" height="100%" overflow="visible" style="display: block;" viewBox="0 0 51.83 51.2825" fill="none" xmlns="http://www.w3.org/2000/svg">
<g id="Group">
<path id="Vector" d="M19.45 51.2525L19.38 51.2325C15.63 50.2625 12.08 48.4225 9.10999 45.9125L9 45.8225L9.09998 45.7225L16.01 39.1125L3.47003 39.2325L3.42999 39.1725C1.55999 35.9725 0.37 32.3325 0 28.6325V28.4925H10.17C17.4 28.4925 23.27 34.1525 23.54 41.3725V41.8425C23.43 45.3225 22 48.6425 19.49 51.1825L19.44 51.2325L19.45 51.2525ZM9.38 45.8225C12.28 48.2425 15.73 50.0325 19.38 50.9825C21.81 48.5025 23.19 45.2625 23.29 41.8625V41.4025C23.04 34.3225 17.28 28.7725 10.18 28.7725H0.27002C0.65002 32.3525 1.79999 35.8925 3.60999 39.0025L16.64 38.8825L9.38 45.8325V45.8225Z" fill="var(--fill-0, #0AEDED)"/>
<path id="Vector_2" d="M32.31 51.2725L32.26 51.2225C29.75 48.6825 28.31 45.3625 28.21 41.8725L28.19 41.5325C28.39 34.3525 34.39 28.5225 41.56 28.5225H51.83L51.82 28.6525C51.45 32.3525 50.26 35.9925 48.39 39.1925L48.35 39.2525H48.28L35.72 39.1325L42.77 45.8825L42.66 45.9725C39.68 48.4725 36.12 50.3025 32.36 51.2625L32.29 51.2825L32.31 51.2725ZM51.56 28.7625H50.86H41.57C34.53 28.7625 28.64 34.4825 28.45 41.5225L28.47 41.8525C28.56 45.2625 29.96 48.5025 32.4 50.9925C36.05 50.0425 39.52 48.2725 42.42 45.8525L35.11 38.8625L48.22 38.9925C50.03 35.8825 51.18 32.3525 51.56 28.7625Z" fill="var(--fill-0, #0AEDED)"/>
<path id="Vector_3" d="M12.34 24.3725C10.83 24.3725 9.41999 23.7925 8.35999 22.7225L1.82001 16.1825L1.84998 16.1025C3.27998 12.6325 5.51003 9.4425 8.28003 6.8925L8.37 6.8125L8.45001 6.8925L16.32 14.7625C17.38 15.8225 17.97 17.2425 17.97 18.7425C17.97 19.0325 17.94 19.3425 17.87 19.7225C17.79 20.1625 17.67 20.5825 17.5 20.9825C17.34 21.3425 17.13 21.7025 16.83 22.1025C16.67 22.3225 16.5 22.5425 16.32 22.7225C15.26 23.7825 13.84 24.3725 12.34 24.3725ZM2.10999 16.1225L8.53003 22.5425C9.54003 23.5525 10.9 24.1125 12.33 24.1125C13.77 24.1125 15.12 23.5525 16.13 22.5425C16.3 22.3725 16.46 22.1625 16.61 21.9525C16.9 21.5625 17.1 21.2225 17.25 20.8825C17.41 20.5025 17.53 20.1025 17.61 19.6825C17.67 19.3225 17.7 19.0225 17.7 18.7425C17.7 17.3025 17.14 15.9525 16.12 14.9425L8.34003 7.16251C5.65003 9.66251 3.49003 12.7625 2.09003 16.1325L2.10999 16.1225Z" fill="var(--fill-0, #0AEDED)"/>
<path id="Vector_4" d="M39.41 24.3725C37.97 24.3725 36.53 23.8225 35.43 22.7225C35.27 22.5625 35.14 22.3925 34.98 22.1625L34.94 22.1025C34.65 21.7225 34.44 21.3625 34.28 21.0025C34.1 20.5925 33.97 20.1725 33.89 19.7525C33.82 19.3725 33.79 19.0325 33.79 18.7225C33.79 17.2225 34.38 15.8025 35.44 14.7425L43.44 6.74251L43.53 6.82251C46.31 9.37251 48.54 12.5525 49.98 16.0225L50.01 16.1025L43.41 22.7125C42.31 23.8125 40.87 24.3625 39.43 24.3625L39.41 24.3725ZM43.43 7.1125L35.6 14.9425C34.58 15.9625 34.02 17.3125 34.02 18.7425C34.02 19.0325 34.05 19.3625 34.12 19.7225C34.19 20.1225 34.32 20.5225 34.49 20.9125C34.64 21.2525 34.85 21.6025 35.12 21.9625L35.16 22.0225C35.33 22.2425 35.45 22.4025 35.59 22.5525C36.6 23.5625 37.96 24.1225 39.39 24.1225C40.82 24.1225 42.18 23.5625 43.19 22.5525L49.68 16.0625C48.27 12.7025 46.1 9.6125 43.41 7.1125H43.43Z" fill="var(--fill-0, #0AEDED)"/>
<path id="Vector_5" d="M25.92 16.8625C22.82 16.8625 20.29 14.3325 20.29 11.2325V0.612504L20.39 0.5925C24.01 -0.1975 27.83 -0.1975 31.45 0.5925L31.55 0.612504V11.2325C31.55 14.3425 29.02 16.8625 25.92 16.8625ZM20.54 0.812501V11.2325C20.54 14.2025 22.95 16.6125 25.92 16.6125C28.89 16.6125 31.3 14.2025 31.3 11.2325V0.812501C27.78 0.0625013 24.06 0.0625013 20.54 0.812501Z" fill="var(--fill-0, #0AEDED)"/>
</g>
</svg>
