<svg preserveAspectRatio="none" width="100%" height="100%" overflow="visible" style="display: block;" viewBox="0 0 51.83 51.2788" fill="none" xmlns="http://www.w3.org/2000/svg">
<g id="Group">
<path id="Vector" d="M19.45 51.2487L19.38 51.2288C15.63 50.2588 12.08 48.4188 9.10999 45.9088L9 45.8188L9.09998 45.7188L16.01 39.1088L3.46997 39.2288L3.42999 39.1688C1.55999 35.9688 0.37 32.3288 0 28.6288V28.4888H10.17C17.4 28.4888 23.27 34.1488 23.54 41.3688V41.8388C23.43 45.3188 22 48.6388 19.49 51.1788L19.44 51.2288L19.45 51.2487ZM9.38 45.8188C12.28 48.2388 15.73 50.0288 19.38 50.9788C21.81 48.4988 23.19 45.2588 23.29 41.8588V41.3988C23.04 34.3188 17.28 28.7688 10.18 28.7688H0.269958C0.649958 32.3488 1.79999 35.8888 3.60999 38.9988L16.64 38.8788L9.38 45.8288V45.8188Z" fill="var(--fill-0, #D9BFB0)"/>
<path id="Vector_2" d="M32.31 51.2688L32.26 51.2188C29.75 48.6788 28.31 45.3588 28.21 41.8688L28.19 41.5288C28.39 34.3488 34.39 28.5188 41.56 28.5188H51.83L51.82 28.6488C51.45 32.3488 50.26 35.9888 48.39 39.1888L48.35 39.2488H48.28L35.72 39.1288L42.77 45.8788L42.66 45.9688C39.68 48.4688 36.12 50.2988 32.36 51.2588L32.29 51.2788L32.31 51.2688ZM51.56 28.7588H50.86H41.57C34.53 28.7588 28.64 34.4788 28.45 41.5188L28.47 41.8488C28.56 45.2588 29.96 48.4988 32.4 50.9888C36.05 50.0388 39.52 48.2688 42.42 45.8488L35.11 38.8588L48.22 38.9888C50.03 35.8788 51.18 32.3488 51.56 28.7588Z" fill="var(--fill-0, #D9BFB0)"/>
<path id="Vector_3" d="M12.33 24.3688C10.82 24.3688 9.40998 23.7888 8.34998 22.7188L1.81 16.1788L1.83997 16.0988C3.26997 12.6288 5.49996 9.43876 8.26996 6.88876L8.35999 6.80875L8.44 6.88876L16.31 14.7588C17.37 15.8188 17.96 17.2388 17.96 18.7388C17.96 19.0288 17.93 19.3388 17.86 19.7188C17.78 20.1588 17.66 20.5788 17.49 20.9788C17.33 21.3388 17.12 21.6988 16.82 22.0988C16.66 22.3188 16.49 22.5388 16.31 22.7188C15.25 23.7788 13.83 24.3688 12.33 24.3688ZM2.10999 16.1188L8.52997 22.5388C9.53997 23.5488 10.9 24.1088 12.33 24.1088C13.77 24.1088 15.12 23.5488 16.13 22.5388C16.3 22.3688 16.46 22.1588 16.61 21.9488C16.9 21.5588 17.1 21.2188 17.25 20.8788C17.41 20.4988 17.53 20.0988 17.61 19.6788C17.67 19.3188 17.7 19.0188 17.7 18.7388C17.7 17.2988 17.14 15.9488 16.12 14.9388L8.33997 7.15875C5.64997 9.65875 3.48997 12.7588 2.08997 16.1288L2.10999 16.1188Z" fill="var(--fill-0, #D9BFB0)"/>
<path id="Vector_4" d="M39.41 24.3688C37.97 24.3688 36.53 23.8188 35.43 22.7188C35.27 22.5588 35.14 22.3888 34.98 22.1588L34.94 22.0988C34.65 21.7188 34.44 21.3588 34.28 20.9988C34.1 20.5888 33.97 20.1688 33.89 19.7488C33.82 19.3688 33.79 19.0288 33.79 18.7188C33.79 17.2188 34.38 15.7988 35.44 14.7388L43.44 6.73875L43.53 6.81876C46.31 9.36876 48.54 12.5488 49.98 16.0188L50.01 16.0988L43.41 22.7088C42.31 23.8088 40.87 24.3588 39.43 24.3588L39.41 24.3688ZM43.43 7.10876L35.6 14.9388C34.58 15.9588 34.02 17.3088 34.02 18.7388C34.02 19.0288 34.05 19.3588 34.12 19.7188C34.19 20.1188 34.32 20.5188 34.49 20.9088C34.64 21.2488 34.85 21.5988 35.12 21.9588L35.16 22.0188C35.33 22.2388 35.45 22.3988 35.59 22.5488C36.6 23.5588 37.96 24.1188 39.39 24.1188C40.82 24.1188 42.18 23.5588 43.19 22.5488L49.68 16.0588C48.27 12.6988 46.1 9.60876 43.41 7.10876H43.43Z" fill="var(--fill-0, #D9BFB0)"/>
<path id="Vector_5" d="M25.92 16.8588C22.82 16.8588 20.29 14.3288 20.29 11.2288V0.60876L20.39 0.588756C24.01 -0.201244 27.83 -0.191244 31.45 0.588756L31.55 0.60876V11.2288C31.55 14.3388 29.02 16.8588 25.92 16.8588ZM20.54 0.808757V11.2288C20.54 14.1988 22.95 16.6088 25.92 16.6088C28.89 16.6088 31.3 14.1988 31.3 11.2288V0.808757C27.78 0.0587572 24.06 0.0587572 20.54 0.808757Z" fill="var(--fill-0, #D9BFB0)"/>
</g>
</svg>
