<svg preserveAspectRatio="none" width="100%" height="100%" overflow="visible" style="display: block;" viewBox="0 0 51.57 51.005" fill="none" xmlns="http://www.w3.org/2000/svg">
<g id="Group">
<path id="Vector" d="M10.05 28.515H0C0.37 32.205 1.53997 35.795 3.40997 38.995L16.19 38.875L9.04999 45.705C12.02 48.215 15.52 50.025 19.27 50.995C21.75 48.485 23.17 45.195 23.27 41.745V41.285C23.02 34.205 17.18 28.525 10.04 28.525L10.05 28.515Z" fill="var(--fill-0, #EAF205)"/>
<path id="Vector_2" d="M41.44 28.515C34.26 28.515 28.39 34.265 28.19 41.395L28.21 41.735C28.31 45.195 29.73 48.485 32.22 51.005C35.98 50.045 39.5 48.235 42.47 45.735L35.29 38.865L48.16 38.985C50.03 35.785 51.2 32.195 51.57 28.495H50.73H41.44V28.515Z" fill="var(--fill-0, #EAF205)"/>
<path id="Vector_3" d="M16.1 22.505C16.27 22.335 16.43 22.125 16.6 21.895C16.9 21.495 17.11 21.145 17.26 20.795C17.43 20.415 17.55 19.995 17.63 19.565C17.7 19.195 17.73 18.885 17.73 18.605C17.73 17.135 17.16 15.755 16.12 14.715L8.25 6.845C5.48 9.405 3.27998 12.545 1.84998 16.015L8.33002 22.495C10.48 24.645 13.97 24.645 16.12 22.495L16.1 22.505Z" fill="var(--fill-0, #EAF205)"/>
<path id="Vector_4" d="M34.25 20.835C34.41 21.185 34.62 21.535 34.9 21.905C35.09 22.155 35.22 22.345 35.39 22.505C37.54 24.655 41.03 24.655 43.18 22.505L49.73 15.955C48.29 12.495 46.09 9.355 43.31 6.805L35.4 14.715C34.36 15.755 33.79 17.135 33.79 18.605C33.79 18.905 33.82 19.235 33.89 19.605C33.97 20.015 34.09 20.425 34.27 20.825L34.25 20.835Z" fill="var(--fill-0, #EAF205)"/>
<path id="Vector_5" d="M20.29 0.585V11.105C20.29 14.145 22.76 16.615 25.79 16.615C28.82 16.615 31.29 14.145 31.29 11.105V0.585C27.67 -0.195 23.89 -0.195 20.28 0.585H20.29Z" fill="var(--fill-0, #EAF205)"/>
</g>
</svg>
