<svg width="52" height="52" viewBox="0 0 52 52" fill="none" xmlns="http://www.w3.org/2000/svg">
<path d="M26.005 30.5678C28.4609 30.5678 30.4518 28.5769 30.4518 26.121C30.4518 23.6651 28.4609 21.6742 26.005 21.6742C23.5491 21.6742 21.5583 23.6651 21.5583 26.121C21.5583 28.5769 23.5491 30.5678 26.005 30.5678Z" fill="#93A603"/>
<path d="M10.1338 28.7528H0C0.373085 32.4735 1.55281 36.0935 3.43841 39.3202L16.325 39.1992L9.12545 46.0861C12.1202 48.617 15.6494 50.4421 19.4306 51.4202C21.9313 48.8893 23.3632 45.5718 23.464 42.0931V41.6293C23.2119 34.4902 17.3232 28.7629 10.1237 28.7629L10.1338 28.7528Z" fill="#93A603"/>
<path d="M41.7855 28.7528C34.5457 28.7528 28.6267 34.5507 28.4251 41.7402L28.4452 42.083C28.546 45.5718 29.9779 48.8893 32.4886 51.4303C36.28 50.4623 39.8293 48.6372 42.8241 46.1163L35.5842 39.1891L48.5615 39.3101C50.4471 36.0834 51.6269 32.4635 52 28.7326H51.153H41.7855V28.7528Z" fill="#93A603"/>
<path d="M16.2342 22.6927C16.4056 22.5212 16.567 22.3095 16.7384 22.0776C17.0409 21.6742 17.2527 21.3213 17.4039 20.9684C17.5753 20.5852 17.6963 20.1617 17.777 19.7281C17.8476 19.3551 17.8778 19.0425 17.8778 18.7601C17.8778 17.2779 17.3031 15.8864 16.2544 14.8377L8.31879 6.90208C5.52569 9.48342 3.30732 12.6496 1.8654 16.1485L8.39947 22.6826C10.5674 24.8505 14.0865 24.8505 16.2544 22.6826L16.2342 22.6927Z" fill="#93A603"/>
<path d="M34.5356 21.0087C34.6969 21.3616 34.9086 21.7146 35.191 22.0877C35.3825 22.3397 35.5137 22.5313 35.6851 22.6927C37.853 24.8606 41.3721 24.8606 43.54 22.6927L50.1446 16.088C48.6926 12.5992 46.4743 9.43301 43.6711 6.86175L35.6951 14.8377C34.6465 15.8864 34.0717 17.2779 34.0717 18.7601C34.0717 19.0626 34.102 19.3954 34.1726 19.7685C34.2533 20.1819 34.3742 20.5953 34.5557 20.9987L34.5356 21.0087Z" fill="#93A603"/>
<path d="M20.4592 0.589878V11.1976C20.4592 14.2629 22.9498 16.7535 26.005 16.7535C29.0603 16.7535 31.5509 14.2629 31.5509 11.1976V0.589878C27.9007 -0.196626 24.0892 -0.196626 20.4491 0.589878H20.4592Z" fill="#93A603"/>
</svg>
