<svg width="621" height="123" viewBox="0 0 621 123" fill="none" xmlns="http://www.w3.org/2000/svg">
<g id="Grow=GrowLight">
<g id="Grow">
<path id="Vector" d="M588.608 94.8026L582.792 75.7116H585.874L590 90.3281H590.199L594.276 75.7116H597.408L601.435 90.2784H601.634L605.76 75.7116H608.843L603.026 94.8026H600.142L595.966 80.1364H595.668L591.492 94.8026H588.608Z" fill="#F2594B"/>
<path id="Vector_2" d="M571.804 95.2003C570.081 95.2003 568.569 94.7901 567.268 93.9698C565.975 93.1495 564.964 92.0019 564.235 90.527C563.514 89.0521 563.154 87.3286 563.154 85.3565C563.154 83.3679 563.514 81.632 564.235 80.1488C564.964 78.6656 565.975 77.5139 567.268 76.6935C568.569 75.8732 570.081 75.4631 571.804 75.4631C573.528 75.4631 575.036 75.8732 576.329 76.6935C577.629 77.5139 578.64 78.6656 579.361 80.1488C580.09 81.632 580.455 83.3679 580.455 85.3565C580.455 87.3286 580.09 89.0521 579.361 90.527C578.64 92.0019 577.629 93.1495 576.329 93.9698C575.036 94.7901 573.528 95.2003 571.804 95.2003ZM571.804 92.5653C573.114 92.5653 574.191 92.2298 575.036 91.5586C575.881 90.8874 576.507 90.005 576.913 88.9112C577.319 87.8175 577.522 86.6326 577.522 85.3565C577.522 84.0805 577.319 82.8915 576.913 81.7894C576.507 80.6874 575.881 79.7966 575.036 79.1172C574.191 78.4377 573.114 78.098 571.804 78.098C570.495 78.098 569.418 78.4377 568.573 79.1172C567.728 79.7966 567.102 80.6874 566.696 81.7894C566.29 82.8915 566.087 84.0805 566.087 85.3565C566.087 86.6326 566.29 87.8175 566.696 88.9112C567.102 90.005 567.728 90.8874 568.573 91.5586C569.418 92.2298 570.495 92.5653 571.804 92.5653Z" fill="#F2594B"/>
<path id="Vector_3" d="M551.607 94.8026V75.7116H554.441V78.5952H554.64C554.988 77.6506 555.618 76.8841 556.529 76.2958C557.441 75.7075 558.468 75.4134 559.612 75.4134C559.827 75.4134 560.096 75.4175 560.419 75.4258C560.743 75.4341 560.987 75.4465 561.153 75.4631V78.446C561.053 78.4212 560.825 78.3839 560.469 78.3342C560.121 78.2762 559.752 78.2472 559.363 78.2472C558.435 78.2472 557.606 78.4419 556.877 78.8313C556.156 79.2125 555.585 79.7428 555.162 80.4222C554.748 81.0934 554.541 81.8598 554.541 82.7216V94.8026H551.607Z" fill="#F2594B"/>
<path id="Vector_4" d="M543.395 77.3026C543.121 76.4657 542.761 75.7158 542.314 75.0529C541.874 74.3817 541.348 73.81 540.735 73.3377C540.13 72.8654 539.442 72.505 538.672 72.2564C537.901 72.0078 537.056 71.8835 536.136 71.8835C534.628 71.8835 533.257 72.273 532.022 73.0518C530.788 73.8307 529.806 74.9783 529.077 76.4947C528.348 78.011 527.983 79.8712 527.983 82.0753C527.983 84.2794 528.352 86.1396 529.089 87.6559C529.827 89.1722 530.825 90.3198 532.085 91.0987C533.344 91.8776 534.761 92.267 536.335 92.267C537.794 92.267 539.078 91.9563 540.188 91.3349C541.307 90.7051 542.177 89.8185 542.798 88.6751C543.428 87.5233 543.743 86.1686 543.743 84.6108L544.688 84.8097H537.031V82.0753H546.726V84.8097C546.726 86.906 546.278 88.7289 545.384 90.2784C544.497 91.8279 543.271 93.0294 541.705 93.8828C540.147 94.728 538.357 95.1506 536.335 95.1506C534.081 95.1506 532.101 94.6203 530.394 93.5597C528.696 92.4991 527.37 90.991 526.417 89.0355C525.472 87.08 525 84.7599 525 82.0753C525 80.0618 525.269 78.2513 525.808 76.6438C526.355 75.0281 527.125 73.6526 528.12 72.5174C529.114 71.3822 530.291 70.5122 531.65 69.9073C533.008 69.3024 534.504 69 536.136 69C537.479 69 538.73 69.203 539.89 69.609C541.058 70.0067 542.098 70.5743 543.01 71.3118C543.929 72.041 544.696 72.9151 545.309 73.9343C545.922 74.9452 546.345 76.0679 546.577 77.3026H543.395Z" fill="#F2594B"/>
</g>
<g id="Group">
<path id="Vector_5" d="M62.1299 71.3425C67.1263 71.3425 71.1766 67.2921 71.1766 62.2958C71.1766 57.2995 67.1263 53.2491 62.1299 53.2491C57.1336 53.2491 53.0833 57.2995 53.0833 62.2958C53.0833 67.2921 57.1336 71.3425 62.1299 71.3425Z" fill="#F2594B"/>
<g id="Group_2">
<path id="Vector_6" d="M29.8575 67.6426H9.26001C10.0158 75.2003 12.4184 82.5775 16.2537 89.1313L42.4687 88.8831L27.8271 102.893C33.9071 108.037 41.1038 111.759 48.7969 113.745C53.8842 108.589 56.7945 101.855 56.9975 94.7713L57.0201 93.8125C56.4899 79.295 44.5104 67.6426 29.8575 67.6426Z" fill="#F2594B"/>
<path id="Vector_7" d="M94.2219 67.6426C79.4901 67.6426 67.4542 79.4191 67.0481 94.0607L67.0819 94.76C67.285 101.867 70.2065 108.612 75.3164 113.767C83.0321 111.793 90.2401 108.093 96.3313 102.961L81.6108 88.8718L108.006 89.1313C111.853 82.5775 114.244 75.2003 115 67.6313L113.274 67.6539H94.2219V67.6426Z" fill="#F2594B"/>
<path id="Vector_8" d="M42.2659 55.3247C42.6155 54.975 42.9427 54.5464 43.2811 54.0839C43.8902 53.2717 44.3188 52.5498 44.6234 51.8278C44.9618 51.0382 45.2212 50.1922 45.3679 49.3124C45.5033 48.5453 45.5709 47.9249 45.5709 47.3384C45.5709 44.3266 44.3978 41.484 42.2659 39.352L26.124 23.2214C20.4388 28.4667 15.938 34.9189 12.9939 42.0254L26.2932 55.3247C30.6924 59.7239 37.8553 59.7239 42.2659 55.3247Z" fill="#F2594B"/>
<path id="Vector_9" d="M79.4901 51.8955C79.806 52.6175 80.2459 53.3394 80.8212 54.0952C81.2047 54.614 81.4867 54.9863 81.8138 55.3247C86.2131 59.7239 93.376 59.7239 97.7865 55.3247L111.21 41.9013C108.254 34.7948 103.731 28.3652 98.0459 23.1312L81.8251 39.352C79.6932 41.484 78.52 44.3153 78.52 47.3384C78.52 47.9588 78.5877 48.6356 78.7231 49.4026C78.881 50.2374 79.1404 51.0834 79.5014 51.8955H79.4901Z" fill="#F2594B"/>
<path id="Vector_10" d="M50.8499 10.3621V31.941C50.8499 38.1676 55.9146 43.2324 62.1413 43.2324C68.3679 43.2324 73.4327 38.1676 73.4327 31.941V10.3621C66.0216 8.76028 58.2609 8.76028 50.8499 10.3621Z" fill="#F2594B"/>
</g>
</g>
<g id="Group_3">
<path id="Vector_11" d="M133 22.935H156.61V69.865C156.61 73.845 157.47 77.485 159.16 80.685C160.86 83.895 163.31 86.455 166.44 88.305C169.57 90.155 173.32 91.085 177.61 91.085H183.32V80.665H177.72C174.85 80.665 172.53 79.765 170.82 77.995C169.11 76.215 168.24 73.925 168.24 71.195V22.935H191.85V12.515H133V22.935Z" fill="#D6D6D6"/>
<path id="Vector_12" d="M240.61 36.645C236.7 34.165 231.92 32.915 226.38 32.915C220.84 32.915 216.15 34.165 211.99 36.645C207.83 39.125 204.56 42.625 202.27 47.045C199.99 51.455 198.83 56.715 198.83 62.675C198.83 68.635 200 73.805 202.32 78.255C204.64 82.715 207.91 86.225 212.04 88.705C216.16 91.175 220.91 92.435 226.15 92.435C230.56 92.435 234.49 91.635 237.83 90.055C241.17 88.485 244 86.335 246.26 83.665C248.51 81.005 250.15 77.905 251.13 74.445L251.31 73.805H241.11L240.99 74.125C239.85 77.045 238.03 79.375 235.58 81.045C233.13 82.715 229.96 83.565 226.16 83.565C223.16 83.565 220.32 82.805 217.71 81.305C215.11 79.805 212.97 77.525 211.36 74.515C210.03 72.025 209.24 68.925 209.03 65.275H252.56L252.59 64.815C252.67 63.735 252.7 62.815 252.7 62.015V59.685C252.7 54.905 251.66 50.445 249.6 46.435C247.54 42.425 244.51 39.135 240.61 36.655V36.645ZM217.63 43.875C220.28 42.475 223.14 41.775 226.15 41.775C230.72 41.775 234.58 43.185 237.61 45.965C240.53 48.645 242.16 52.375 242.46 57.065H209.1C209.41 54.325 210.14 51.955 211.28 50.005C212.85 47.325 214.98 45.265 217.62 43.875H217.63Z" fill="#D6D6D6"/>
<path id="Vector_13" d="M285.44 34.375C282.62 35.355 280.17 36.765 278.18 38.575C276.6 40.005 275.23 41.695 274.09 43.615L273.5 34.235H264.11V91.085H274.42V61.775C274.42 58.305 274.88 55.365 275.77 53.035C276.66 50.725 277.92 48.875 279.5 47.535C281.1 46.185 282.96 45.185 285.02 44.585C287.11 43.975 289.34 43.665 291.64 43.665H295.58V32.915H295.08C291.5 32.915 288.25 33.405 285.44 34.385V34.375Z" fill="#D6D6D6"/>
<path id="Vector_14" d="M349.38 36.865C345.29 34.245 340.45 32.905 334.98 32.905C331.53 32.905 328.45 33.415 325.82 34.435C323.2 35.445 320.91 36.785 319.02 38.405C317.53 39.685 316.25 41.035 315.19 42.425L314.49 34.235H305.11V115.475H315.42V83.165C317.24 85.845 319.67 88.005 322.66 89.595C326.19 91.475 330.3 92.425 334.86 92.425C340.32 92.425 345.18 91.135 349.31 88.585C353.43 86.035 356.68 82.485 358.97 78.025C361.25 73.575 362.41 68.445 362.41 62.775C362.41 57.105 361.25 51.975 358.97 47.525C356.68 43.065 353.46 39.485 349.38 36.855V36.865ZM351.99 62.665C351.99 66.845 351.21 70.525 349.66 73.575C348.12 76.615 345.95 79.025 343.19 80.745C340.44 82.455 337.26 83.325 333.76 83.325C330.26 83.325 326.99 82.455 324.27 80.745C321.55 79.025 319.42 76.615 317.91 73.575C316.4 70.515 315.63 66.845 315.63 62.655C315.63 58.465 316.4 54.885 317.91 51.795C319.42 48.715 321.55 46.285 324.27 44.575C326.99 42.865 330.18 41.995 333.76 41.995C337.34 41.995 340.44 42.865 343.19 44.575C345.94 46.285 348.11 48.725 349.66 51.795C351.21 54.895 351.99 58.545 351.99 62.655V62.665Z" fill="#D6D6D6"/>
<path id="Vector_15" d="M410.96 35.795C407.47 33.875 403.04 32.905 397.81 32.905C393.99 32.905 390.27 33.645 386.76 35.105C383.23 36.565 380.28 38.705 377.98 41.455C375.67 44.215 374.27 47.685 373.82 51.745L373.76 52.305H384.27L384.34 51.885C384.9 48.565 386.44 46.025 388.89 44.345C391.38 42.635 394.38 41.775 397.8 41.775C400.72 41.775 403.19 42.345 405.14 43.485C407.07 44.605 408.57 46.305 409.59 48.525C410.57 50.665 411.1 53.355 411.15 56.515H396.91C391.99 56.515 387.67 57.215 384.04 58.595C380.38 59.985 377.51 62.055 375.51 64.745C373.49 67.445 372.47 70.765 372.47 74.635C372.47 77.815 373.24 80.785 374.75 83.465C376.27 86.165 378.61 88.355 381.71 89.975C384.79 91.595 388.68 92.415 393.25 92.415C395.8 92.415 398.12 92.115 400.15 91.505C402.18 90.905 404 90.085 405.55 89.055C407.1 88.035 408.48 86.805 409.65 85.415C410.42 84.505 411.1 83.535 411.69 82.525L412.17 91.075H421.45V55.995C421.45 51.365 420.57 47.275 418.85 43.855C417.11 40.415 414.45 37.695 410.94 35.775L410.96 35.795ZM411.17 64.715C411.15 67.095 410.77 69.415 410.03 71.595C409.28 73.815 408.16 75.875 406.73 77.705C405.3 79.525 403.55 80.975 401.52 81.995C399.5 83.025 397.21 83.545 394.71 83.545C392.21 83.545 390.17 83.145 388.43 82.375C386.72 81.605 385.41 80.515 384.55 79.125C383.68 77.735 383.24 76.075 383.24 74.185C383.24 72.295 383.7 70.725 384.6 69.305C385.5 67.895 387.02 66.765 389.12 65.955C391.27 65.135 394.16 64.715 397.7 64.715H411.16H411.17Z" fill="#D6D6D6"/>
<path id="Vector_16" d="M448.29 26.315C448.29 23.665 448.85 21.815 449.96 20.815C451.08 19.795 452.96 19.285 455.55 19.285H460.93V10.305H454.11C450.66 10.305 447.7 10.865 445.31 11.955C442.89 13.075 441.04 14.825 439.81 17.165C438.6 19.485 437.98 22.485 437.98 26.095V34.245H429.45V43.115H437.98V91.105H448.29V43.115H462.37V34.245H448.29V26.325V26.315Z" fill="#D6D6D6"/>
<path id="Vector_17" d="M514.74 34.235L495.9 76.155L478.18 34.545L478.05 34.235H466.86L489.25 84.885H492.02L478.39 115.475H489.23L525.16 34.945L525.48 34.235H514.74Z" fill="#D6D6D6"/>
</g>
</g>
</svg>
