<svg width="52" height="52" viewBox="0 0 52 52" fill="none" xmlns="http://www.w3.org/2000/svg">
<g id="Property 1=orange">
<path id="Vector" d="M26.005 30.5778C28.4609 30.5778 30.4518 28.587 30.4518 26.1311C30.4518 23.6752 28.4609 21.6843 26.005 21.6843C23.5491 21.6843 21.5583 23.6752 21.5583 26.1311C21.5583 28.587 23.5491 30.5778 26.005 30.5778Z" fill="#F2594B"/>
<g id="Group">
<path id="Vector_2" d="M10.1338 28.7628H0C0.373085 32.4836 1.55281 36.1035 3.43841 39.3302L16.325 39.2092L9.12545 46.0962C12.1202 48.6271 15.6494 50.4522 19.4306 51.4303C21.9313 48.8994 23.3632 45.5819 23.464 42.1032V41.6393C23.2119 34.5003 17.3232 28.7729 10.1237 28.7729L10.1338 28.7628Z" fill="#F2594B"/>
<path id="Vector_3" d="M41.7855 28.7628C34.5457 28.7628 28.6267 34.5608 28.4251 41.7502L28.4452 42.0931C28.546 45.5819 29.9779 48.8993 32.4886 51.4404C36.28 50.4724 39.8293 48.6473 42.8241 46.1264L35.5842 39.1991L48.5615 39.3201C50.4471 36.0935 51.6269 32.4735 52 28.7427H51.153H41.7855V28.7628Z" fill="#F2594B"/>
<path id="Vector_4" d="M16.2342 22.7027C16.4056 22.5313 16.567 22.3196 16.7384 22.0876C17.0409 21.6843 17.2527 21.3314 17.4039 20.9785C17.5753 20.5953 17.6963 20.1718 17.777 19.7382C17.8476 19.3651 17.8778 19.0525 17.8778 18.7702C17.8778 17.288 17.3031 15.8964 16.2544 14.8478L8.31879 6.91215C5.52569 9.4935 3.30732 12.6597 1.8654 16.1586L8.39947 22.6926C10.5674 24.8606 14.0865 24.8606 16.2544 22.6926L16.2342 22.7027Z" fill="#F2594B"/>
<path id="Vector_5" d="M34.5356 21.0188C34.6969 21.3717 34.9086 21.7246 35.191 22.0977C35.3825 22.3498 35.5137 22.5414 35.6851 22.7027C37.853 24.8707 41.3721 24.8707 43.54 22.7027L50.1446 16.0981C48.6926 12.6093 46.4743 9.44309 43.6711 6.87183L35.6951 14.8478C34.6465 15.8965 34.0717 17.288 34.0717 18.7702C34.0717 19.0727 34.102 19.4055 34.1726 19.7786C34.2533 20.192 34.3742 20.6054 34.5557 21.0087L34.5356 21.0188Z" fill="#F2594B"/>
<path id="Vector_6" d="M20.4592 0.589878V11.1976C20.4592 14.2629 22.9498 16.7535 26.005 16.7535C29.0603 16.7535 31.5509 14.2629 31.5509 11.1976V0.589878C27.9007 -0.196626 24.0892 -0.196626 20.4491 0.589878H20.4592Z" fill="#F2594B"/>
</g>
</g>
</svg>
