<svg preserveAspectRatio="none" width="100%" height="100%" overflow="visible" style="display: block;" viewBox="0 0 41.5838 13.2069" fill="none" xmlns="http://www.w3.org/2000/svg">
<g id="Grow">
<path id="Vector" d="M31.5481 13.0064L28.6631 3.38332H30.1919L32.2385 10.751H32.3371L34.3591 3.38332H35.9125L37.9098 10.7259H38.0084L40.055 3.38332H41.5838L38.6989 13.0064H37.2687L35.1975 5.61367H35.0495L32.9782 13.0064H31.5481Z" fill="var(--fill-0, white)"/>
<path id="Vector_2" d="M23.2137 13.2069C22.3589 13.2069 21.6089 13.0001 20.9637 12.5866C20.3226 12.1731 19.8212 11.5947 19.4596 10.8512C19.102 10.1078 18.9233 9.23902 18.9233 8.24497C18.9233 7.24257 19.102 6.36756 19.4596 5.61993C19.8212 4.87231 20.3226 4.29175 20.9637 3.87826C21.6089 3.46477 22.3589 3.25802 23.2137 3.25802C24.0685 3.25802 24.8165 3.46477 25.4576 3.87826C26.1028 4.29175 26.6042 4.87231 26.9617 5.61993C27.3234 6.36756 27.5042 7.24257 27.5042 8.24497C27.5042 9.23902 27.3234 10.1078 26.9617 10.8512C26.6042 11.5947 26.1028 12.1731 25.4576 12.5866C24.8165 13.0001 24.0685 13.2069 23.2137 13.2069ZM23.2137 11.8787C23.8631 11.8787 24.3973 11.7095 24.8165 11.3712C25.2357 11.0329 25.546 10.5881 25.7473 10.0368C25.9487 9.48545 26.0494 8.88818 26.0494 8.24497C26.0494 7.60177 25.9487 7.00241 25.7473 6.44692C25.546 5.89142 25.2357 5.44243 24.8165 5.09994C24.3973 4.75745 23.8631 4.58621 23.2137 4.58621C22.5644 4.58621 22.0302 4.75745 21.611 5.09994C21.1918 5.44243 20.8815 5.89142 20.6801 6.44692C20.4788 7.00241 20.3781 7.60177 20.3781 8.24497C20.3781 8.88818 20.4788 9.48545 20.6801 10.0368C20.8815 10.5881 21.1918 11.0329 21.611 11.3712C22.0302 11.7095 22.5644 11.8787 23.2137 11.8787Z" fill="var(--fill-0, white)"/>
<path id="Vector_3" d="M13.1965 13.0064V3.38332H14.602V4.83681H14.7006C14.8732 4.36067 15.1856 3.97432 15.6376 3.67778C16.0897 3.38123 16.5993 3.23296 17.1664 3.23296C17.2733 3.23296 17.4068 3.23505 17.5671 3.23923C17.7274 3.2434 17.8486 3.24967 17.9308 3.25802V4.76163C17.8815 4.7491 17.7685 4.7303 17.5918 4.70524C17.4192 4.676 17.2363 4.66138 17.0431 4.66138C16.5828 4.66138 16.1719 4.75954 15.8102 4.95584C15.4527 5.14797 15.1691 5.41527 14.9595 5.75776C14.7541 6.09607 14.6513 6.48242 14.6513 6.91679V13.0064H13.1965Z" fill="var(--fill-0, white)"/>
<path id="Vector_4" d="M9.12339 4.18524C8.98777 3.7634 8.809 3.38541 8.58708 3.05128C8.36927 2.71296 8.10831 2.42477 7.8042 2.1867C7.50419 1.94863 7.16309 1.76695 6.7809 1.64165C6.3987 1.51635 5.97952 1.4537 5.52335 1.4537C4.7754 1.4537 4.09525 1.65 3.48292 2.04261C2.87058 2.43522 2.38359 3.01369 2.02194 3.77802C1.66029 4.54235 1.47947 5.48001 1.47947 6.59101C1.47947 7.702 1.66235 8.63967 2.0281 9.404C2.39386 10.1683 2.88907 10.7468 3.51374 11.1394C4.1384 11.532 4.84115 11.7283 5.62198 11.7283C6.34528 11.7283 6.98227 11.5717 7.53296 11.2584C8.08776 10.941 8.51927 10.4941 8.8275 9.91773C9.13983 9.33717 9.29599 8.65429 9.29599 7.86907L9.76449 7.96931H5.96719V6.59101H10.7755V7.96931C10.7755 9.02601 10.5535 9.94488 10.1097 10.7259C9.66997 11.507 9.06175 12.1126 8.28502 12.5428C7.51241 12.9688 6.62473 13.1818 5.62198 13.1818C4.50416 13.1818 3.52196 12.9145 2.67537 12.3799C1.8329 11.8453 1.17536 11.0851 0.702748 10.0994C0.234249 9.11372 0 7.94425 0 6.59101C0 5.57607 0.133563 4.66347 0.400689 3.8532C0.671925 3.03875 1.05412 2.34542 1.54728 1.77321C2.04043 1.20101 2.624 0.762457 3.29798 0.45756C3.97196 0.152663 4.71375 0.000213623 5.52335 0.000213623C6.18911 0.000213623 6.80967 0.102542 7.38501 0.307199C7.96447 0.50768 8.48023 0.793782 8.93229 1.16551C9.38846 1.53305 9.7686 1.97369 10.0727 2.48742C10.3768 2.99698 10.5864 3.56292 10.7015 4.18524H9.12339Z" fill="var(--fill-0, white)"/>
</g>
</svg>
