<svg preserveAspectRatio="none" width="100%" height="100%" overflow="visible" style="display: block;" viewBox="0 0 194.66 53.0125" fill="none" xmlns="http://www.w3.org/2000/svg">
<g id="Group">
<path id="Vector" d="M0 6.36634H11.71V30.0221C11.71 32.0283 12.1365 33.8631 12.9747 35.4761C13.8178 37.0941 15.033 38.3845 16.5854 39.3171C18.1378 40.2496 19.9977 40.7184 22.1254 40.7184H24.9574V35.466H22.18C20.7565 35.466 19.6059 35.0124 18.7577 34.1202C17.9096 33.2229 17.4781 32.0686 17.4781 30.6925V6.36634H29.1881V1.11398H0V6.36634Z" fill="var(--fill-0, white)"/>
<path id="Vector_2" d="M53.3718 13.2771C51.4325 12.027 49.0618 11.3969 46.3141 11.3969C43.5664 11.3969 41.2402 12.027 39.177 13.2771C37.1137 14.5272 35.4919 16.2914 34.3561 18.5193C33.2253 20.7423 32.65 23.3937 32.65 26.3979C32.65 29.4021 33.2303 32.0081 34.3809 34.2512C35.5316 36.4994 37.1534 38.2686 39.2018 39.5187C41.2452 40.7637 43.6011 41.3989 46.2 41.3989C48.3872 41.3989 50.3364 40.9956 51.993 40.1992C53.6495 39.4078 55.0531 38.3241 56.174 36.9782C57.29 35.6374 58.1034 34.0748 58.5894 32.3307L58.6787 32.0081H53.6198L53.5602 32.1694C52.9948 33.6413 52.0922 34.8158 50.877 35.6576C49.6619 36.4994 48.0896 36.9278 46.2049 36.9278C44.717 36.9278 43.3085 36.5447 42.014 35.7886C40.7244 35.0325 39.663 33.8833 38.8645 32.366C38.2049 31.1109 37.8131 29.5483 37.7089 27.7085H59.2987L59.3135 27.4766C59.3532 26.9322 59.3681 26.4685 59.3681 26.0652V24.8907C59.3681 22.4813 58.8523 20.2332 57.8306 18.2119C56.8089 16.1906 55.3061 14.5322 53.3718 13.2821V13.2771ZM41.9743 16.9215C43.2886 16.2158 44.7071 15.8629 46.2 15.8629C48.4666 15.8629 50.381 16.5737 51.8838 17.975C53.3321 19.3259 54.1405 21.206 54.2893 23.5701H37.7436C37.8974 22.1889 38.2594 20.9943 38.8248 20.0114C39.6035 18.6605 40.6599 17.6221 41.9693 16.9215H41.9743Z" fill="var(--fill-0, white)"/>
<path id="Vector_3" d="M75.6063 12.1328C74.2077 12.6268 72.9925 13.3376 72.0055 14.2499C71.2219 14.9707 70.5424 15.8226 69.977 16.7904L69.6844 12.0623H65.0272V40.7184H70.1407V25.9442C70.1407 24.1951 70.3688 22.7132 70.8102 21.5387C71.2517 20.3743 71.8766 19.4418 72.6602 18.7663C73.4538 18.0859 74.3763 17.5818 75.398 17.2793C76.4346 16.9719 77.5406 16.8156 78.6814 16.8156H80.6355V11.3969H80.3875C78.6119 11.3969 77 11.6439 75.6063 12.1379V12.1328Z" fill="var(--fill-0, white)"/>
<path id="Vector_4" d="M107.319 13.388C105.29 12.0673 102.89 11.3919 100.177 11.3919C98.4658 11.3919 96.9382 11.6489 95.6338 12.1631C94.3343 12.6722 93.1985 13.3476 92.2611 14.1642C91.5221 14.8094 90.8873 15.4899 90.3615 16.1906L90.0144 12.0623H85.3621V53.0125H90.4756V36.7262C91.3783 38.0771 92.5835 39.1659 94.0665 39.9673C95.8173 40.915 97.8557 41.3938 100.117 41.3938C102.825 41.3938 105.236 40.7436 107.284 39.4582C109.328 38.1728 110.94 36.3834 112.075 34.1353C113.206 31.8922 113.781 29.3063 113.781 26.4483C113.781 23.5902 113.206 21.0044 112.075 18.7613C110.94 16.5132 109.342 14.7086 107.319 13.3829V13.388ZM108.613 26.3928C108.613 28.4998 108.227 30.3548 107.458 31.8922C106.694 33.4246 105.618 34.6393 104.249 35.5063C102.885 36.3683 101.308 36.8068 99.5718 36.8068C97.8359 36.8068 96.214 36.3683 94.865 35.5063C93.5159 34.6393 92.4595 33.4246 91.7106 31.8922C90.9617 30.3498 90.5798 28.4998 90.5798 26.3878C90.5798 24.2758 90.9617 22.4712 91.7106 20.9137C92.4595 19.3611 93.5159 18.1363 94.865 17.2743C96.214 16.4124 97.7962 15.9738 99.5718 15.9738C101.347 15.9738 102.885 16.4124 104.249 17.2743C105.613 18.1363 106.689 19.3662 107.458 20.9137C108.227 22.4763 108.613 24.3161 108.613 26.3878V26.3928Z" fill="var(--fill-0, white)"/>
<path id="Vector_5" d="M137.861 12.8486C136.13 11.8808 133.933 11.3919 131.339 11.3919C129.444 11.3919 127.599 11.7649 125.858 12.5008C124.108 13.2367 122.645 14.3154 121.504 15.7016C120.358 17.0928 119.664 18.842 119.441 20.8885L119.411 21.1707H124.623L124.658 20.959C124.936 19.2855 125.7 18.0052 126.915 17.1584C128.15 16.2964 129.638 15.8629 131.334 15.8629C132.782 15.8629 134.007 16.1502 134.974 16.7249C135.932 17.2894 136.676 18.1463 137.181 19.2654C137.668 20.3441 137.93 21.7 137.955 23.2928H130.893C128.452 23.2928 126.31 23.6457 124.509 24.3413C122.694 25.042 121.271 26.0854 120.279 27.4413C119.277 28.8023 118.771 30.4758 118.771 32.4265C118.771 34.0294 119.153 35.5265 119.902 36.8774C120.656 38.2384 121.816 39.3423 123.354 40.1589C124.881 40.9754 126.811 41.3888 129.077 41.3888C130.342 41.3888 131.493 41.2376 132.5 40.9301C133.506 40.6276 134.409 40.2143 135.178 39.6951C135.947 39.181 136.631 38.561 137.211 37.8603C137.593 37.4016 137.93 36.9127 138.223 36.4036L138.461 40.7133H143.064V23.0307C143.064 20.6969 142.627 18.6353 141.774 16.9114C140.911 15.1774 139.592 13.8063 137.851 12.8385L137.861 12.8486ZM137.965 27.4262C137.955 28.6259 137.767 29.7953 137.4 30.8941C137.028 32.0132 136.472 33.0515 135.763 33.974C135.054 34.8914 134.186 35.6223 133.179 36.1364C132.177 36.6556 131.041 36.9177 129.801 36.9177C128.561 36.9177 127.55 36.7161 126.687 36.328C125.839 35.9398 125.189 35.3904 124.762 34.6898C124.331 33.9891 124.113 33.1524 124.113 32.1997C124.113 31.247 124.341 30.4556 124.787 29.7398C125.233 29.0291 125.987 28.4595 127.029 28.0512C128.095 27.6379 129.529 27.4262 131.284 27.4262H137.96H137.965Z" fill="var(--fill-0, white)"/>
<path id="Vector_6" d="M156.376 8.07008C156.376 6.73431 156.653 5.80179 157.204 5.29772C157.759 4.78358 158.692 4.5265 159.976 4.5265H162.645V1.00795e-07H159.262C157.551 1.00795e-07 156.083 0.282276 154.898 0.831707C153.697 1.39626 152.78 2.27837 152.17 3.45789C151.57 4.62732 151.262 6.13951 151.262 7.95919V12.0673H147.032V16.5384H151.262V40.7285H156.376V16.5384H163.359V12.0673H156.376V8.07512V8.07008Z" fill="var(--fill-0, white)"/>
<path id="Vector_7" d="M189.333 12.0623L179.989 33.1927L171.2 12.2185L171.136 12.0623H165.586L176.691 37.5932H178.065L171.305 53.0125H176.681L194.501 12.4202L194.66 12.0623H189.333Z" fill="var(--fill-0, white)"/>
</g>
</svg>
