<svg width="396" height="294" viewBox="0 0 396 294" fill="none" xmlns="http://www.w3.org/2000/svg">
<g id="Logo">
<rect x="0.5" y="0.5" width="395" height="292.595" rx="4.5" stroke="#8A38F5" stroke-dasharray="10 5"/>
<g id="Property 1=orange">
<path id="Vector" d="M45.8456 50.5C48.2841 50.5 50.2609 48.5231 50.2609 46.0846C50.2609 43.6461 48.2841 41.6693 45.8456 41.6693C43.407 41.6693 41.4302 43.6461 41.4302 46.0846C41.4302 48.5231 43.407 50.5 45.8456 50.5Z" fill="#F2594B"/>
<g id="Group">
<path id="Vector_2" d="M30.0865 48.6978H20.0243C20.3947 52.3923 21.5661 55.9866 23.4384 59.1905L36.2339 59.0704L29.0852 65.9087C32.0589 68.4217 35.5631 70.2339 39.3176 71.2051C41.8006 68.692 43.2224 65.398 43.3225 61.9438V61.4833C43.0722 54.3947 37.2251 48.7078 30.0764 48.7078L30.0865 48.6978Z" fill="#F2594B"/>
<path id="Vector_3" d="M61.5146 48.6978C54.3259 48.6978 48.4487 54.4548 48.2485 61.5934L48.2685 61.9338C48.3686 65.398 49.7903 68.692 52.2833 71.2151C56.0479 70.2539 59.5722 68.4417 62.5458 65.9387L55.3571 59.0603L68.2427 59.1805C70.115 55.9766 71.2864 52.3823 71.6569 48.6778H70.8158H61.5146V48.6978Z" fill="#F2594B"/>
<path id="Vector_4" d="M36.1438 42.6805C36.314 42.5103 36.4742 42.3 36.6444 42.0697C36.9448 41.6693 37.1551 41.3188 37.3052 40.9684C37.4754 40.588 37.5956 40.1674 37.6757 39.7369C37.7458 39.3665 37.7758 39.0561 37.7758 38.7758C37.7758 37.304 37.2051 35.9223 36.1638 34.881L28.2843 27.0015C25.5109 29.5646 23.3082 32.7084 21.8765 36.1826L28.3644 42.6705C30.517 44.8231 34.0112 44.8231 36.1638 42.6705L36.1438 42.6805Z" fill="#F2594B"/>
<path id="Vector_5" d="M54.3158 41.0085C54.476 41.3589 54.6863 41.7093 54.9666 42.0798C55.1568 42.3301 55.287 42.5203 55.4572 42.6805C57.6099 44.8331 61.1041 44.8331 63.2567 42.6805L69.8146 36.1225C68.3729 32.6583 66.1702 29.5145 63.3868 26.9614L55.4672 34.881C54.4259 35.9223 53.8553 37.304 53.8553 38.7758C53.8553 39.0761 53.8853 39.4065 53.9554 39.777C54.0355 40.1875 54.1556 40.598 54.3358 40.9985L54.3158 41.0085Z" fill="#F2594B"/>
<path id="Vector_6" d="M40.3389 20.7239V31.2566C40.3389 34.3003 42.8119 36.7733 45.8456 36.7733C48.8792 36.7733 51.3522 34.3003 51.3522 31.2566V20.7239C47.7278 19.9429 43.9432 19.9429 40.3289 20.7239H40.3389Z" fill="#F2594B"/>
</g>
</g>
<g id="Property 1=yellow">
<path id="Vector_7" d="M45.8456 117.902C48.2841 117.902 50.2609 115.925 50.2609 113.486C50.2609 111.048 48.2841 109.071 45.8456 109.071C43.407 109.071 41.4302 111.048 41.4302 113.486C41.4302 115.925 43.407 117.902 45.8456 117.902Z" fill="#EAF205"/>
<g id="Group_2">
<path id="Vector_8" d="M30.0865 116.099H20.0243C20.3947 119.794 21.5661 123.388 23.4384 126.592L36.2339 126.472L29.0852 133.31C32.0589 135.823 35.5631 137.636 39.3176 138.607C41.8006 136.094 43.2224 132.8 43.3225 129.346V128.885C43.0722 121.796 37.2251 116.11 30.0764 116.11L30.0865 116.099Z" fill="#EAF205"/>
<path id="Vector_9" d="M61.5146 116.099C54.3259 116.099 48.4487 121.856 48.2485 128.995L48.2685 129.336C48.3686 132.8 49.7903 136.094 52.2833 138.617C56.0479 137.656 59.5722 135.843 62.5458 133.34L55.3571 126.462L68.2427 126.582C70.115 123.378 71.2864 119.784 71.6569 116.079H70.8158H61.5146V116.099Z" fill="#EAF205"/>
<path id="Vector_10" d="M36.1438 110.082C36.314 109.912 36.4742 109.702 36.6444 109.471C36.9448 109.071 37.1551 108.721 37.3052 108.37C37.4754 107.99 37.5956 107.569 37.6757 107.139C37.7458 106.768 37.7758 106.458 37.7758 106.177C37.7758 104.706 37.2051 103.324 36.1638 102.283L28.2843 94.4032C25.5109 96.9663 23.3082 100.11 21.8765 103.584L28.3644 110.072C30.517 112.225 34.0112 112.225 36.1638 110.072L36.1438 110.082Z" fill="#EAF205"/>
<path id="Vector_11" d="M54.3158 108.41C54.476 108.761 54.6863 109.111 54.9666 109.481C55.1568 109.732 55.287 109.922 55.4572 110.082C57.6099 112.235 61.1041 112.235 63.2567 110.082L69.8146 103.524C68.3729 100.06 66.1702 96.9162 63.3868 94.3631L55.4672 102.283C54.4259 103.324 53.8553 104.706 53.8553 106.177C53.8553 106.478 53.8853 106.808 53.9554 107.179C54.0355 107.589 54.1556 108 54.3358 108.4L54.3158 108.41Z" fill="#EAF205"/>
<path id="Vector_12" d="M40.3389 88.1356V98.6684C40.3389 101.712 42.8119 104.185 45.8456 104.185C48.8792 104.185 51.3522 101.712 51.3522 98.6684V88.1356C47.7278 87.3546 43.9432 87.3546 40.3289 88.1356H40.3389Z" fill="#EAF205"/>
</g>
</g>
<g id="Property 1=blue">
<path id="Vector_13" d="M45.8456 185.303C48.2841 185.303 50.2609 183.327 50.2609 180.888C50.2609 178.45 48.2841 176.473 45.8456 176.473C43.407 176.473 41.4302 178.45 41.4302 180.888C41.4302 183.327 43.407 185.303 45.8456 185.303Z" fill="#0AEDED"/>
<g id="Group_3">
<path id="Vector_14" d="M30.0865 183.501H20.0243C20.3947 187.196 21.5661 190.79 23.4384 193.994L36.2339 193.874L29.0852 200.712C32.0589 203.225 35.5631 205.037 39.3176 206.008C41.8006 203.495 43.2224 200.201 43.3225 196.747V196.287C43.0722 189.198 37.2251 183.511 30.0764 183.511L30.0865 183.501Z" fill="#0AEDED"/>
<path id="Vector_15" d="M61.5146 183.501C54.3259 183.501 48.4487 189.258 48.2485 196.397L48.2685 196.737C48.3686 200.201 49.7903 203.495 52.2833 206.019C56.0479 205.057 59.5722 203.245 62.5458 200.742L55.3571 193.864L68.2427 193.984C70.115 190.78 71.2864 187.186 71.6569 183.481H70.8158H61.5146V183.501Z" fill="#0AEDED"/>
<path id="Vector_16" d="M36.1438 177.484C36.314 177.314 36.4742 177.103 36.6444 176.873C36.9448 176.473 37.1551 176.122 37.3052 175.772C37.4754 175.391 37.5956 174.971 37.6757 174.54C37.7458 174.17 37.7758 173.86 37.7758 173.579C37.7758 172.107 37.2051 170.726 36.1638 169.684L28.2843 161.805C25.5109 164.368 23.3082 167.512 21.8765 170.986L28.3644 177.474C30.517 179.627 34.0112 179.627 36.1638 177.474L36.1438 177.484Z" fill="#0AEDED"/>
<path id="Vector_17" d="M54.3158 175.812C54.476 176.162 54.6863 176.513 54.9666 176.883C55.1568 177.133 55.287 177.324 55.4572 177.484C57.6099 179.637 61.1041 179.637 63.2567 177.484L69.8146 170.926C68.3729 167.462 66.1702 164.318 63.3868 161.765L55.4672 169.684C54.4259 170.726 53.8553 172.107 53.8553 173.579C53.8553 173.88 53.8853 174.21 53.9554 174.58C54.0355 174.991 54.1556 175.401 54.3358 175.802L54.3158 175.812Z" fill="#0AEDED"/>
<path id="Vector_18" d="M40.3389 155.537V166.07C40.3389 169.114 42.8119 171.587 45.8456 171.587C48.8792 171.587 51.3522 169.114 51.3522 166.07V155.537C47.7278 154.756 43.9432 154.756 40.3289 155.537H40.3389Z" fill="#0AEDED"/>
</g>
</g>
<g id="Property 1=green">
<path id="Vector_19" d="M45.8456 252.705C48.2841 252.705 50.2609 250.728 50.2609 248.29C50.2609 245.851 48.2841 243.874 45.8456 243.874C43.407 243.874 41.4302 245.851 41.4302 248.29C41.4302 250.728 43.407 252.705 45.8456 252.705Z" fill="#93A603"/>
<g id="Group_4">
<path id="Vector_20" d="M30.0865 250.903H20.0243C20.3947 254.597 21.5661 258.192 23.4384 261.396L36.2339 261.275L29.0852 268.114C32.0589 270.627 35.5631 272.439 39.3176 273.41C41.8006 270.897 43.2224 267.603 43.3225 264.149V263.688C43.0722 256.6 37.2251 250.913 30.0764 250.913L30.0865 250.903Z" fill="#93A603"/>
<path id="Vector_21" d="M61.5146 250.903C54.3259 250.903 48.4487 256.66 48.2485 263.799L48.2685 264.139C48.3686 267.603 49.7903 270.897 52.2833 273.42C56.0479 272.459 59.5722 270.647 62.5458 268.144L55.3571 261.265L68.2427 261.386C70.115 258.182 71.2864 254.587 71.6569 250.883H70.8158H61.5146V250.903Z" fill="#93A603"/>
<path id="Vector_22" d="M36.1438 244.886C36.314 244.715 36.4742 244.505 36.6444 244.275C36.9448 243.874 37.1551 243.524 37.3052 243.174C37.4754 242.793 37.5956 242.373 37.6757 241.942C37.7458 241.572 37.7758 241.261 37.7758 240.981C37.7758 239.509 37.2051 238.127 36.1638 237.086L28.2843 229.207C25.5109 231.77 23.3082 234.914 21.8765 238.388L28.3644 244.876C30.517 247.028 34.0112 247.028 36.1638 244.876L36.1438 244.886Z" fill="#93A603"/>
<path id="Vector_23" d="M54.3158 243.214C54.476 243.564 54.6863 243.914 54.9666 244.285C55.1568 244.535 55.287 244.725 55.4572 244.886C57.6099 247.038 61.1041 247.038 63.2567 244.886L69.8146 238.328C68.3729 234.863 66.1702 231.72 63.3868 229.167L55.4672 237.086C54.4259 238.127 53.8553 239.509 53.8553 240.981C53.8553 241.281 53.8853 241.612 53.9554 241.982C54.0355 242.393 54.1556 242.803 54.3358 243.204L54.3158 243.214Z" fill="#93A603"/>
<path id="Vector_24" d="M40.3389 222.939V233.472C40.3389 236.515 42.8119 238.988 45.8456 238.988C48.8792 238.988 51.3522 236.515 51.3522 233.472V222.939C47.7278 222.158 43.9432 222.158 40.3289 222.939H40.3389Z" fill="#93A603"/>
</g>
</g>
<g id="Property 1=out orange">
<path id="Vector_25" d="M153.526 50.6301C151.023 50.6301 148.981 48.5877 148.981 46.0846C148.981 43.5816 151.023 41.5391 153.526 41.5391C156.029 41.5391 158.072 43.5816 158.072 46.0846C158.072 48.5877 156.029 50.6301 153.526 50.6301ZM153.526 41.7894C151.153 41.7894 149.231 43.7117 149.231 46.0846C149.231 48.4575 151.153 50.3798 153.526 50.3798C155.899 50.3798 157.821 48.4575 157.821 46.0846C157.821 43.7117 155.899 41.7894 153.526 41.7894Z" fill="#F2594B"/>
<g id="Group_5">
<path id="Vector_26" d="M147.048 71.3352L146.978 71.3152C143.224 70.344 139.669 68.5018 136.696 65.9887L136.586 65.8986L136.686 65.7985L143.604 59.1805L131.049 59.3006L131.009 59.2406C129.137 56.0367 127.945 52.3923 127.575 48.6878V48.5476H137.757C144.996 48.5476 150.873 54.2145 151.143 61.4432V61.9138C151.033 65.398 149.601 68.7221 147.088 71.2651L147.038 71.3152L147.048 71.3352ZM136.966 65.8986C139.87 68.3216 143.324 70.1137 146.978 71.0649C149.411 68.5819 150.793 65.338 150.893 61.9338V61.4733C150.643 54.3847 144.876 48.8279 137.767 48.8279H127.845C128.225 52.4123 129.377 55.9566 131.189 59.0704L144.235 58.9502L136.966 65.9087V65.8986Z" fill="#F2594B"/>
<path id="Vector_27" d="M159.924 71.3553L159.874 71.3052C157.361 68.7621 155.919 65.4381 155.819 61.9438L155.799 61.6034C155.999 54.4147 162.006 48.5776 169.185 48.5776H179.468L179.458 48.7078C179.087 52.4123 177.896 56.0567 176.023 59.2606L175.983 59.3207H175.913L163.338 59.2005L170.397 65.9587L170.286 66.0488C167.303 68.5519 163.738 70.3841 159.974 71.3452L159.904 71.3653L159.924 71.3553ZM179.197 48.8079H178.496H169.195C162.147 48.8079 156.249 54.5349 156.059 61.5834L156.079 61.9138C156.169 65.3279 157.571 68.5719 160.014 71.0649C163.668 70.1137 167.143 68.3416 170.046 65.9187L162.727 58.9202L175.853 59.0503C177.665 55.9366 178.817 52.4023 179.197 48.8079Z" fill="#F2594B"/>
<path id="Vector_28" d="M139.93 44.4226C138.488 44.4226 137.046 43.8719 135.945 42.7706L129.397 36.2227L129.427 36.1426C130.859 32.6684 133.091 29.4745 135.865 26.9214L135.955 26.8413L136.035 26.9214L143.914 34.8009C144.976 35.8622 145.566 37.2839 145.566 38.7858C145.566 39.0761 145.536 39.3865 145.466 39.767C145.386 40.2075 145.266 40.628 145.096 41.0285C144.936 41.3889 144.725 41.7494 144.425 42.1498C144.265 42.3701 144.095 42.5904 143.914 42.7706C142.813 43.8719 141.371 44.4226 139.93 44.4226ZM129.687 36.1626L136.115 42.5904C137.126 43.6016 138.488 44.1623 139.92 44.1623C141.361 44.1623 142.713 43.6016 143.724 42.5904C143.894 42.4202 144.055 42.2099 144.205 41.9997C144.495 41.6092 144.695 41.2688 144.846 40.9284C145.006 40.5479 145.126 40.1474 145.206 39.7269C145.266 39.3665 145.296 39.0661 145.296 38.7858C145.296 37.344 144.735 35.9924 143.714 34.9812L135.925 27.1917C133.232 29.6948 131.069 32.7985 129.667 36.1726L129.687 36.1626Z" fill="#F2594B"/>
<path id="Vector_29" d="M167.032 44.4226C165.591 44.4226 164.149 43.8719 163.048 42.7706C162.887 42.6104 162.757 42.4402 162.597 42.2099L162.557 42.1498C162.267 41.7694 162.056 41.409 161.896 41.0485C161.716 40.638 161.586 40.2175 161.506 39.797C161.436 39.4165 161.406 39.0761 161.406 38.7657C161.406 37.2639 161.996 35.8422 163.058 34.7809L171.067 26.7712L171.157 26.8513C173.941 29.4044 176.174 32.5883 177.615 36.0625L177.645 36.1426L177.585 36.2026L171.027 42.7606C169.926 43.8619 168.484 44.4126 167.042 44.4126L167.032 44.4226ZM171.057 27.1417L163.218 34.9812C162.197 36.0024 161.636 37.354 161.636 38.7858C161.636 39.0761 161.666 39.4065 161.736 39.767C161.806 40.1674 161.936 40.5679 162.106 40.9584C162.257 41.2988 162.467 41.6492 162.737 42.0097L162.777 42.0698C162.948 42.29 163.068 42.4502 163.208 42.6004C164.219 43.6116 165.581 44.1723 167.012 44.1723C168.444 44.1723 169.806 43.6116 170.817 42.6004L177.315 36.1025C175.903 32.7384 173.731 29.6447 171.037 27.1417H171.057Z" fill="#F2594B"/>
<path id="Vector_30" d="M153.526 36.9035C150.422 36.9035 147.889 34.3704 147.889 31.2667V20.6338L147.989 20.6137C151.614 19.8228 155.438 19.8328 159.063 20.6137L159.163 20.6338V31.2667C159.163 34.3804 156.63 36.9035 153.526 36.9035ZM148.14 20.824V31.2566C148.14 34.2303 150.552 36.6432 153.526 36.6432C156.5 36.6432 158.913 34.2303 158.913 31.2566V20.824C155.388 20.0731 151.664 20.0731 148.14 20.824Z" fill="#F2594B"/>
</g>
</g>
<g id="Property 1=out yellow">
<path id="Vector_31" d="M153.526 118.032C151.023 118.032 148.981 115.989 148.981 113.486C148.981 110.983 151.023 108.941 153.526 108.941C156.029 108.941 158.072 110.983 158.072 113.486C158.072 115.989 156.029 118.032 153.526 118.032ZM153.526 109.191C151.153 109.191 149.231 111.113 149.231 113.486C149.231 115.859 151.153 117.782 153.526 117.782C155.899 117.782 157.821 115.859 157.821 113.486C157.821 111.113 155.899 109.191 153.526 109.191Z" fill="#EAF205"/>
<g id="Group_6">
<path id="Vector_32" d="M147.048 138.737L146.978 138.717C143.224 137.746 139.669 135.903 136.696 133.39L136.586 133.3L136.686 133.2L143.604 126.582L131.049 126.702L131.009 126.642C129.137 123.438 127.945 119.794 127.575 116.089V115.949H137.757C144.996 115.949 150.873 121.616 151.143 128.845V129.316C151.033 132.8 149.601 136.124 147.088 138.667L147.038 138.717L147.048 138.737ZM136.966 133.3C139.87 135.723 143.324 137.515 146.978 138.467C149.411 135.984 150.793 132.74 150.893 129.336V128.875C150.643 121.786 144.876 116.23 137.767 116.23H127.845C128.225 119.814 129.377 123.358 131.189 126.472L144.235 126.352L136.966 133.31V133.3Z" fill="#EAF205"/>
<path id="Vector_33" d="M159.924 138.757L159.874 138.707C157.361 136.164 155.919 132.84 155.819 129.346L155.799 129.005C155.999 121.816 162.006 115.979 169.185 115.979H179.468L179.458 116.11C179.087 119.814 177.896 123.458 176.023 126.662L175.983 126.722H175.913L163.338 126.602L170.397 133.36L170.286 133.451C167.303 135.954 163.738 137.786 159.974 138.747L159.904 138.767L159.924 138.757ZM179.197 116.22H178.496H169.195C162.147 116.22 156.249 121.947 156.059 128.995L156.079 129.326C156.169 132.74 157.571 135.984 160.014 138.477C163.668 137.525 167.143 135.753 170.046 133.33L162.727 126.332L175.853 126.462C177.665 123.348 178.817 119.814 179.197 116.22Z" fill="#EAF205"/>
<path id="Vector_34" d="M139.93 111.824C138.418 111.824 137.006 111.244 135.945 110.172L129.397 103.624L129.427 103.544C130.859 100.07 133.091 96.8762 135.865 94.3231L135.955 94.243L136.035 94.3231L143.914 102.203C144.976 103.264 145.566 104.686 145.566 106.187C145.566 106.478 145.536 106.788 145.466 107.169C145.386 107.609 145.266 108.03 145.096 108.43C144.936 108.791 144.725 109.151 144.425 109.552C144.265 109.772 144.095 109.992 143.914 110.172C142.853 111.234 141.431 111.824 139.93 111.824ZM129.687 103.564L136.115 109.992C137.126 111.003 138.488 111.564 139.92 111.564C141.361 111.564 142.713 111.003 143.724 109.992C143.894 109.822 144.055 109.612 144.205 109.401C144.495 109.011 144.695 108.67 144.846 108.33C145.006 107.95 145.126 107.549 145.206 107.129C145.266 106.768 145.296 106.468 145.296 106.187C145.296 104.746 144.735 103.394 143.714 102.383L135.925 94.5934C133.232 97.0965 131.069 100.2 129.667 103.574L129.687 103.564Z" fill="#EAF205"/>
<path id="Vector_35" d="M167.032 111.824C165.591 111.824 164.149 111.274 163.048 110.172C162.887 110.012 162.757 109.842 162.597 109.612L162.557 109.552C162.267 109.171 162.056 108.811 161.896 108.45C161.716 108.04 161.586 107.619 161.506 107.199C161.436 106.818 161.406 106.478 161.406 106.167C161.406 104.666 161.996 103.244 163.058 102.183L171.067 94.1729L171.157 94.253C173.941 96.8061 176.174 99.99 177.615 103.464L177.645 103.544L171.037 110.162C169.936 111.264 168.494 111.814 167.052 111.814L167.032 111.824ZM171.057 94.5434L163.218 102.383C162.197 103.404 161.636 104.756 161.636 106.187C161.636 106.478 161.666 106.808 161.736 107.169C161.806 107.569 161.936 107.97 162.106 108.36C162.257 108.701 162.467 109.051 162.737 109.411L162.777 109.471C162.948 109.692 163.068 109.852 163.208 110.002C164.219 111.013 165.581 111.574 167.012 111.574C168.444 111.574 169.806 111.013 170.817 110.002L177.315 103.504C175.903 100.14 173.731 97.0464 171.037 94.5434H171.057Z" fill="#EAF205"/>
<path id="Vector_36" d="M153.526 104.305C150.422 104.305 147.889 101.772 147.889 98.6684V88.0355L147.989 88.0155C151.614 87.2245 155.438 87.2345 159.063 88.0155L159.163 88.0355V98.6684C159.163 101.782 156.63 104.305 153.526 104.305ZM148.14 88.2357V98.6684C148.14 101.642 150.552 104.055 153.526 104.055C156.5 104.055 158.913 101.642 158.913 98.6684V88.2357C155.388 87.4848 151.664 87.4848 148.14 88.2357Z" fill="#EAF205"/>
</g>
</g>
<g id="Property 1=out blue">
<path id="Vector_37" d="M153.526 185.434C151.023 185.434 148.981 183.391 148.981 180.888C148.981 178.385 151.023 176.343 153.526 176.343C156.029 176.343 158.072 178.385 158.072 180.888C158.072 183.391 156.029 185.434 153.526 185.434ZM153.526 176.593C151.153 176.593 149.231 178.515 149.231 180.888C149.231 183.261 151.153 185.183 153.526 185.183C155.899 185.183 157.821 183.261 157.821 180.888C157.821 178.515 155.899 176.593 153.526 176.593Z" fill="#0AEDED"/>
<g id="Group_7">
<path id="Vector_38" d="M147.048 206.139L146.978 206.119C143.224 205.147 139.669 203.305 136.696 200.792L136.586 200.702L136.686 200.602L143.604 193.984L131.049 194.104L131.009 194.044C129.137 190.84 127.945 187.196 127.575 183.491V183.351H137.757C144.996 183.351 150.873 189.018 151.143 196.247V196.717C151.033 200.201 149.601 203.525 147.088 206.069L147.038 206.119L147.048 206.139ZM136.966 200.702C139.87 203.125 143.324 204.917 146.978 205.868C149.411 203.385 150.793 200.141 150.893 196.737V196.277C150.643 189.188 144.876 183.631 137.767 183.631H127.845C128.225 187.216 129.377 190.76 131.189 193.874L144.235 193.754L136.966 200.712V200.702Z" fill="#0AEDED"/>
<path id="Vector_39" d="M159.924 206.159L159.874 206.109C157.361 203.566 155.919 200.241 155.819 196.747L155.799 196.407C155.999 189.218 162.006 183.381 169.185 183.381H179.468L179.458 183.511C179.087 187.216 177.896 190.86 176.023 194.064L175.983 194.124H175.913L163.338 194.004L170.397 200.762L170.286 200.852C167.303 203.355 163.738 205.187 159.974 206.149L159.904 206.169L159.924 206.159ZM179.197 183.621H178.496H169.195C162.147 183.621 156.249 189.348 156.059 196.397L156.079 196.727C156.169 200.141 157.571 203.385 160.014 205.878C163.668 204.927 167.143 203.155 170.046 200.732L162.727 193.734L175.853 193.864C177.665 190.75 178.817 187.216 179.197 183.621Z" fill="#0AEDED"/>
<path id="Vector_40" d="M139.93 179.226C138.418 179.226 137.006 178.645 135.945 177.574L129.397 171.026L129.427 170.946C130.859 167.472 133.091 164.278 135.865 161.725L135.955 161.645L136.035 161.725L143.914 169.604C144.976 170.666 145.566 172.087 145.566 173.589C145.566 173.88 145.536 174.19 145.466 174.57C145.386 175.011 145.266 175.431 145.096 175.832C144.936 176.192 144.725 176.553 144.425 176.953C144.265 177.174 144.095 177.394 143.914 177.574C142.853 178.635 141.431 179.226 139.93 179.226ZM129.687 170.966L136.115 177.394C137.126 178.405 138.488 178.966 139.92 178.966C141.361 178.966 142.713 178.405 143.724 177.394C143.894 177.224 144.055 177.013 144.205 176.803C144.495 176.413 144.695 176.072 144.846 175.732C145.006 175.351 145.126 174.951 145.206 174.53C145.266 174.17 145.296 173.87 145.296 173.589C145.296 172.147 144.735 170.796 143.714 169.785L135.925 161.995C133.232 164.498 131.069 167.602 129.667 170.976L129.687 170.966Z" fill="#0AEDED"/>
<path id="Vector_41" d="M167.032 179.226C165.591 179.226 164.149 178.675 163.048 177.574C162.887 177.414 162.757 177.244 162.597 177.013L162.557 176.953C162.267 176.573 162.056 176.212 161.896 175.852C161.716 175.441 161.586 175.021 161.506 174.6C161.436 174.22 161.406 173.88 161.406 173.569C161.406 172.067 161.996 170.646 163.058 169.584L171.067 161.575L171.157 161.655C173.941 164.208 176.174 167.392 177.615 170.866L177.645 170.946L171.037 177.564C169.936 178.665 168.494 179.216 167.052 179.216L167.032 179.226ZM171.057 161.945L163.218 169.785C162.197 170.806 161.636 172.157 161.636 173.589C161.636 173.88 161.666 174.21 161.736 174.57C161.806 174.971 161.936 175.371 162.106 175.762C162.257 176.102 162.467 176.453 162.737 176.813L162.777 176.873C162.948 177.093 163.068 177.254 163.208 177.404C164.219 178.415 165.581 178.976 167.012 178.976C168.444 178.976 169.806 178.415 170.817 177.404L177.315 170.906C175.903 167.542 173.731 164.448 171.037 161.945H171.057Z" fill="#0AEDED"/>
<path id="Vector_42" d="M153.526 171.707C150.422 171.707 147.889 169.174 147.889 166.07V155.437L147.989 155.417C151.614 154.626 155.438 154.626 159.063 155.417L159.163 155.437V166.07C159.163 169.184 156.63 171.707 153.526 171.707ZM148.14 155.637V166.07C148.14 169.044 150.552 171.457 153.526 171.457C156.5 171.457 158.913 169.044 158.913 166.07V155.637C155.388 154.887 151.664 154.887 148.14 155.637Z" fill="#0AEDED"/>
</g>
</g>
<g id="Property 1=out green">
<path id="Vector_43" d="M153.526 252.835C151.023 252.835 148.981 250.793 148.981 248.29C148.981 245.787 151.023 243.744 153.526 243.744C156.029 243.744 158.072 245.787 158.072 248.29C158.072 250.793 156.029 252.835 153.526 252.835ZM153.526 243.995C151.153 243.995 149.231 245.917 149.231 248.29C149.231 250.663 151.153 252.585 153.526 252.585C155.899 252.585 157.821 250.663 157.821 248.29C157.821 245.917 155.899 243.995 153.526 243.995Z" fill="#93A603"/>
<g id="Group_8">
<path id="Vector_44" d="M147.048 273.55L146.978 273.53C143.224 272.559 139.669 270.717 136.696 268.204L136.586 268.114L136.686 268.014L143.604 261.396L131.049 261.516L131.009 261.456C129.137 258.252 127.945 254.607 127.575 250.903V250.763H137.757C144.996 250.763 150.873 256.43 151.143 263.658V264.129C151.033 267.613 149.601 270.937 147.088 273.48L147.038 273.53L147.048 273.55ZM136.966 268.104C139.87 270.527 143.324 272.319 146.978 273.27C149.411 270.787 150.793 267.543 150.893 264.139V263.678C150.643 256.59 144.876 251.033 137.767 251.033H127.845C128.225 254.617 129.377 258.162 131.189 261.275L144.235 261.155L136.966 268.114V268.104Z" fill="#93A603"/>
<path id="Vector_45" d="M159.924 273.56L159.874 273.51C157.361 270.967 155.919 267.643 155.819 264.149L155.799 263.809C155.999 256.62 162.006 250.783 169.185 250.783H179.468L179.458 250.913C179.087 254.617 177.896 258.262 176.023 261.466L175.983 261.526H175.913L163.338 261.406L170.397 268.164L170.286 268.254C167.303 270.757 163.738 272.589 159.974 273.55L159.904 273.57L159.924 273.56ZM179.197 251.023H178.496H169.195C162.147 251.023 156.249 256.75 156.059 263.799L156.079 264.129C156.169 267.543 157.571 270.787 160.014 273.28C163.668 272.329 167.143 270.557 170.046 268.134L162.727 261.135L175.853 261.265C177.665 258.152 178.817 254.617 179.197 251.023Z" fill="#93A603"/>
<path id="Vector_46" d="M139.93 246.628C138.488 246.628 137.046 246.077 135.945 244.976L129.397 238.428L129.427 238.348C130.859 234.873 133.091 231.68 135.865 229.127L135.955 229.046L136.035 229.127L143.914 237.006C144.976 238.067 145.566 239.489 145.566 240.991C145.566 241.281 145.536 241.592 145.466 241.972C145.386 242.413 145.266 242.833 145.096 243.234C144.936 243.594 144.725 243.954 144.425 244.355C144.265 244.575 144.095 244.796 143.914 244.976C142.813 246.077 141.371 246.628 139.93 246.628ZM129.687 238.368L136.115 244.796C137.126 245.807 138.488 246.367 139.92 246.367C141.361 246.367 142.713 245.807 143.724 244.796C143.894 244.625 144.055 244.415 144.205 244.205C144.495 243.814 144.695 243.474 144.846 243.133C145.006 242.753 145.126 242.353 145.206 241.932C145.266 241.572 145.296 241.271 145.296 240.991C145.296 239.549 144.735 238.198 143.714 237.186L135.925 229.397C133.232 231.9 131.069 235.004 129.667 238.378L129.687 238.368Z" fill="#93A603"/>
<path id="Vector_47" d="M167.032 246.628C165.591 246.628 164.149 246.077 163.048 244.976C162.887 244.816 162.757 244.645 162.597 244.415L162.557 244.355C162.267 243.975 162.056 243.614 161.896 243.254C161.716 242.843 161.586 242.423 161.506 242.002C161.436 241.622 161.406 241.281 161.406 240.971C161.406 239.469 161.996 238.047 163.058 236.986L171.067 228.976L171.157 229.056C173.941 231.61 176.174 234.793 177.615 238.268L177.645 238.348L177.585 238.408L171.027 244.966C169.926 246.067 168.484 246.618 167.042 246.618L167.032 246.628ZM171.057 229.347L163.218 237.186C162.197 238.208 161.636 239.559 161.636 240.991C161.636 241.281 161.666 241.612 161.736 241.972C161.806 242.373 161.936 242.773 162.106 243.164C162.257 243.504 162.467 243.854 162.737 244.215L162.777 244.275C162.948 244.495 163.068 244.655 163.208 244.806C164.219 245.817 165.581 246.377 167.012 246.377C168.444 246.377 169.806 245.817 170.817 244.806L177.315 238.308C175.903 234.944 173.731 231.85 171.037 229.347H171.057Z" fill="#93A603"/>
<path id="Vector_48" d="M153.526 239.109C150.422 239.109 147.889 236.576 147.889 233.472V222.839L147.989 222.819C151.614 222.028 155.438 222.028 159.063 222.819L159.163 222.839V233.472C159.163 236.586 156.63 239.109 153.526 239.109ZM148.14 223.039V233.472C148.14 236.445 150.552 238.858 153.526 238.858C156.5 238.858 158.913 236.445 158.913 233.472V223.039C155.388 222.288 151.664 222.288 148.14 223.039Z" fill="#93A603"/>
</g>
</g>
<g id="Property 1=brown">
<path id="Vector_49" d="M261.197 50.5C263.635 50.5 265.612 48.5231 265.612 46.0846C265.612 43.6461 263.635 41.6693 261.197 41.6693C258.758 41.6693 256.781 43.6461 256.781 46.0846C256.781 48.5231 258.758 50.5 261.197 50.5Z" fill="#592E25"/>
<g id="Group_9">
<path id="Vector_50" d="M245.448 48.6978H235.385C235.756 52.3923 236.927 55.9866 238.799 59.1905L251.595 59.0704L244.446 65.9087C247.42 68.4217 250.924 70.2339 254.679 71.2051C257.162 68.692 258.583 65.398 258.684 61.9438V61.4833C258.433 54.3947 252.586 48.7078 245.438 48.7078L245.448 48.6978Z" fill="#592E25"/>
<path id="Vector_51" d="M276.866 48.6978C269.677 48.6978 263.8 54.4548 263.6 61.5934L263.62 61.9338C263.72 65.398 265.141 68.692 267.634 71.2151C271.399 70.2539 274.923 68.4417 277.897 65.9387L270.708 59.0603L283.594 59.1805C285.466 55.9766 286.637 52.3823 287.008 48.6778H286.167H276.866V48.6978Z" fill="#592E25"/>
<path id="Vector_52" d="M251.495 42.6805C251.665 42.5103 251.825 42.3 251.995 42.0697C252.296 41.6693 252.506 41.3188 252.656 40.9684C252.826 40.588 252.947 40.1674 253.027 39.7369C253.097 39.3665 253.127 39.0561 253.127 38.7758C253.127 37.304 252.556 35.9223 251.515 34.881L243.635 27.0015C240.862 29.5646 238.659 32.7084 237.228 36.1826L243.715 42.6705C245.868 44.8231 249.362 44.8231 251.515 42.6705L251.495 42.6805Z" fill="#592E25"/>
<path id="Vector_53" d="M269.677 41.0085C269.837 41.3589 270.047 41.7093 270.328 42.0798C270.518 42.3301 270.648 42.5203 270.818 42.6805C272.971 44.8331 276.465 44.8331 278.618 42.6805L285.176 36.1225C283.734 32.6583 281.531 29.5145 278.748 26.9614L270.828 34.881C269.787 35.9223 269.216 37.304 269.216 38.7758C269.216 39.0761 269.246 39.4065 269.316 39.777C269.397 40.1875 269.517 40.598 269.697 40.9985L269.677 41.0085Z" fill="#592E25"/>
<path id="Vector_54" d="M255.69 20.7239V31.2566C255.69 34.3003 258.163 36.7733 261.197 36.7733C264.23 36.7733 266.703 34.3003 266.703 31.2566V20.7239C263.079 19.9429 259.294 19.9429 255.68 20.7239H255.69Z" fill="#592E25"/>
</g>
</g>
<g id="Property 1=bege">
<path id="Vector_55" d="M261.197 117.902C263.635 117.902 265.612 115.925 265.612 113.486C265.612 111.048 263.635 109.071 261.197 109.071C258.758 109.071 256.781 111.048 256.781 113.486C256.781 115.925 258.758 117.902 261.197 117.902Z" fill="#D9BFB0"/>
<g id="Group_10">
<path id="Vector_56" d="M245.448 116.099H235.385C235.756 119.794 236.927 123.388 238.799 126.592L251.595 126.472L244.446 133.31C247.42 135.823 250.924 137.636 254.679 138.607C257.162 136.094 258.583 132.8 258.684 129.346V128.885C258.433 121.796 252.586 116.11 245.438 116.11L245.448 116.099Z" fill="#D9BFB0"/>
<path id="Vector_57" d="M276.866 116.099C269.677 116.099 263.8 121.856 263.6 128.995L263.62 129.336C263.72 132.8 265.141 136.094 267.634 138.617C271.399 137.656 274.923 135.843 277.897 133.34L270.708 126.462L283.594 126.582C285.466 123.378 286.637 119.784 287.008 116.079H286.167H276.866V116.099Z" fill="#D9BFB0"/>
<path id="Vector_58" d="M251.495 110.082C251.665 109.912 251.825 109.702 251.995 109.471C252.296 109.071 252.506 108.721 252.656 108.37C252.826 107.99 252.947 107.569 253.027 107.139C253.097 106.768 253.127 106.458 253.127 106.177C253.127 104.706 252.556 103.324 251.515 102.283L243.635 94.4032C240.862 96.9663 238.659 100.11 237.228 103.584L243.715 110.072C245.868 112.225 249.362 112.225 251.515 110.072L251.495 110.082Z" fill="#D9BFB0"/>
<path id="Vector_59" d="M269.677 108.41C269.837 108.761 270.047 109.111 270.328 109.481C270.518 109.732 270.648 109.922 270.818 110.082C272.971 112.235 276.465 112.235 278.618 110.082L285.176 103.524C283.734 100.06 281.531 96.9162 278.748 94.3631L270.828 102.283C269.787 103.324 269.216 104.706 269.216 106.177C269.216 106.478 269.246 106.808 269.316 107.179C269.397 107.589 269.517 108 269.697 108.4L269.677 108.41Z" fill="#D9BFB0"/>
<path id="Vector_60" d="M255.69 88.1356V98.6684C255.69 101.712 258.163 104.185 261.197 104.185C264.23 104.185 266.703 101.712 266.703 98.6684V88.1356C263.079 87.3546 259.294 87.3546 255.68 88.1356H255.69Z" fill="#D9BFB0"/>
</g>
</g>
<g id="Property 1=gray">
<path id="Vector_61" d="M261.197 185.303C263.635 185.303 265.612 183.327 265.612 180.888C265.612 178.45 263.635 176.473 261.197 176.473C258.758 176.473 256.781 178.45 256.781 180.888C256.781 183.327 258.758 185.303 261.197 185.303Z" fill="#D6D6D6"/>
<g id="Group_11">
<path id="Vector_62" d="M245.448 183.501H235.385C235.756 187.196 236.927 190.79 238.799 193.994L251.595 193.874L244.446 200.712C247.42 203.225 250.924 205.037 254.679 206.008C257.162 203.495 258.583 200.201 258.684 196.747V196.287C258.433 189.198 252.586 183.511 245.438 183.511L245.448 183.501Z" fill="#D6D6D6"/>
<path id="Vector_63" d="M276.866 183.501C269.677 183.501 263.8 189.258 263.6 196.397L263.62 196.737C263.72 200.201 265.141 203.495 267.634 206.019C271.399 205.057 274.923 203.245 277.897 200.742L270.708 193.864L283.594 193.984C285.466 190.78 286.637 187.186 287.008 183.481H286.167H276.866V183.501Z" fill="#D6D6D6"/>
<path id="Vector_64" d="M251.495 177.484C251.665 177.314 251.825 177.103 251.995 176.873C252.296 176.473 252.506 176.122 252.656 175.772C252.826 175.391 252.947 174.971 253.027 174.54C253.097 174.17 253.127 173.86 253.127 173.579C253.127 172.107 252.556 170.726 251.515 169.684L243.635 161.805C240.862 164.368 238.659 167.512 237.228 170.986L243.715 177.474C245.868 179.627 249.362 179.627 251.515 177.474L251.495 177.484Z" fill="#D6D6D6"/>
<path id="Vector_65" d="M269.677 175.812C269.837 176.162 270.047 176.513 270.328 176.883C270.518 177.133 270.648 177.324 270.818 177.484C272.971 179.637 276.465 179.637 278.618 177.484L285.176 170.926C283.734 167.462 281.531 164.318 278.748 161.765L270.828 169.684C269.787 170.726 269.216 172.107 269.216 173.579C269.216 173.88 269.246 174.21 269.316 174.58C269.397 174.991 269.517 175.401 269.697 175.802L269.677 175.812Z" fill="#D6D6D6"/>
<path id="Vector_66" d="M255.69 155.537V166.07C255.69 169.114 258.163 171.587 261.197 171.587C264.23 171.587 266.703 169.114 266.703 166.07V155.537C263.079 154.756 259.294 154.756 255.68 155.537H255.69Z" fill="#D6D6D6"/>
</g>
</g>
<g id="Property 1=black">
<path id="Vector_67" d="M261.197 252.705C263.635 252.705 265.612 250.728 265.612 248.29C265.612 245.851 263.635 243.874 261.197 243.874C258.758 243.874 256.781 245.851 256.781 248.29C256.781 250.728 258.758 252.705 261.197 252.705Z" fill="#3A3A3A"/>
<g id="Group_12">
<path id="Vector_68" d="M245.448 250.903H235.385C235.756 254.597 236.927 258.192 238.799 261.396L251.595 261.275L244.446 268.114C247.42 270.627 250.924 272.439 254.679 273.41C257.162 270.897 258.583 267.603 258.684 264.149V263.688C258.433 256.6 252.586 250.913 245.438 250.913L245.448 250.903Z" fill="#3A3A3A"/>
<path id="Vector_69" d="M276.866 250.903C269.677 250.903 263.8 256.66 263.6 263.799L263.62 264.139C263.72 267.603 265.141 270.897 267.634 273.42C271.399 272.459 274.923 270.647 277.897 268.144L270.708 261.265L283.594 261.386C285.466 258.182 286.637 254.587 287.008 250.883H286.167H276.866V250.903Z" fill="#3A3A3A"/>
<path id="Vector_70" d="M251.495 244.886C251.665 244.715 251.825 244.505 251.995 244.275C252.296 243.874 252.506 243.524 252.656 243.174C252.826 242.793 252.947 242.373 253.027 241.942C253.097 241.572 253.127 241.261 253.127 240.981C253.127 239.509 252.556 238.127 251.515 237.086L243.635 229.207C240.862 231.77 238.659 234.914 237.228 238.388L243.715 244.876C245.868 247.028 249.362 247.028 251.515 244.876L251.495 244.886Z" fill="#3A3A3A"/>
<path id="Vector_71" d="M269.677 243.214C269.837 243.564 270.047 243.914 270.328 244.285C270.518 244.535 270.648 244.725 270.818 244.886C272.971 247.038 276.465 247.038 278.618 244.886L285.176 238.328C283.734 234.863 281.531 231.72 278.748 229.167L270.828 237.086C269.787 238.127 269.216 239.509 269.216 240.981C269.216 241.281 269.246 241.612 269.316 241.982C269.397 242.393 269.517 242.803 269.697 243.204L269.677 243.214Z" fill="#3A3A3A"/>
<path id="Vector_72" d="M255.69 222.939V233.472C255.69 236.515 258.163 238.988 261.197 238.988C264.23 238.988 266.703 236.515 266.703 233.472V222.939C263.079 222.158 259.294 222.158 255.68 222.939H255.69Z" fill="#3A3A3A"/>
</g>
</g>
<g id="Property 1=out brown">
<path id="Vector_73" d="M350.034 50.6301C347.531 50.6301 345.489 48.5877 345.489 46.0846C345.489 43.5816 347.531 41.5391 350.034 41.5391C352.537 41.5391 354.58 43.5816 354.58 46.0846C354.58 48.5877 352.537 50.6301 350.034 50.6301ZM350.034 41.7894C347.661 41.7894 345.739 43.7117 345.739 46.0846C345.739 48.4575 347.661 50.3798 350.034 50.3798C352.407 50.3798 354.329 48.4575 354.329 46.0846C354.329 43.7117 352.407 41.7894 350.034 41.7894Z" fill="#592E25"/>
<g id="Group_13">
<path id="Vector_74" d="M343.556 71.3352L343.486 71.3152C339.732 70.344 336.178 68.5018 333.204 65.9887L333.094 65.8986L333.194 65.7985L340.112 59.1805L327.557 59.3006L327.517 59.2406C325.645 56.0367 324.453 52.3923 324.083 48.6878V48.5476H334.265C341.504 48.5476 347.381 54.2145 347.651 61.4432V61.9138C347.541 65.398 346.11 68.7221 343.597 71.2651L343.546 71.3152L343.556 71.3352ZM333.474 65.8986C336.378 68.3216 339.832 70.1137 343.486 71.0649C345.919 68.5819 347.301 65.338 347.401 61.9338V61.4733C347.151 54.3847 341.384 48.8279 334.275 48.8279H324.353C324.734 52.4123 325.885 55.9566 327.697 59.0704L340.743 58.9502L333.474 65.9087V65.8986Z" fill="#592E25"/>
<path id="Vector_75" d="M356.432 71.3553L356.382 71.3052C353.869 68.7621 352.427 65.4381 352.327 61.9438L352.307 61.6034C352.507 54.4147 358.515 48.5776 365.693 48.5776H375.976L375.966 48.7078C375.595 52.4123 374.404 56.0567 372.532 59.2606L372.492 59.3207H372.421L359.846 59.2005L366.905 65.9587L366.795 66.0488C363.811 68.5519 360.247 70.3841 356.482 71.3452L356.412 71.3653L356.432 71.3553ZM375.705 48.8079H375.005H365.703C358.655 48.8079 352.758 54.5349 352.567 61.5834L352.587 61.9138C352.677 65.3279 354.079 68.5719 356.522 71.0649C360.177 70.1137 363.651 68.3416 366.554 65.9187L359.235 58.9202L372.361 59.0503C374.174 55.9366 375.325 52.4023 375.705 48.8079Z" fill="#592E25"/>
<path id="Vector_76" d="M336.438 44.4226C334.996 44.4226 333.554 43.8719 332.453 42.7706L325.905 36.2227L325.935 36.1426C327.367 32.6684 329.6 29.4745 332.373 26.9214L332.463 26.8413L332.543 26.9214L340.423 34.8009C341.484 35.8622 342.075 37.2839 342.075 38.7858C342.075 39.0761 342.045 39.3865 341.975 39.767C341.894 40.2075 341.774 40.628 341.604 41.0285C341.444 41.3889 341.234 41.7494 340.933 42.1498C340.773 42.3701 340.603 42.5904 340.423 42.7706C339.321 43.8719 337.88 44.4226 336.438 44.4226ZM326.195 36.1626L332.623 42.5904C333.634 43.6016 334.996 44.1623 336.428 44.1623C337.87 44.1623 339.221 43.6016 340.232 42.5904C340.403 42.4202 340.563 42.2099 340.713 41.9997C341.003 41.6092 341.204 41.2688 341.354 40.9284C341.514 40.5479 341.634 40.1474 341.714 39.7269C341.774 39.3665 341.804 39.0661 341.804 38.7858C341.804 37.344 341.244 35.9924 340.222 34.9812L332.433 27.1917C329.74 29.6948 327.577 32.7985 326.175 36.1726L326.195 36.1626Z" fill="#592E25"/>
<path id="Vector_77" d="M363.541 44.4226C362.099 44.4226 360.657 43.8719 359.556 42.7706C359.396 42.6104 359.265 42.4402 359.105 42.2099L359.065 42.1498C358.775 41.7694 358.565 41.409 358.404 41.0485C358.224 40.638 358.094 40.2175 358.014 39.797C357.944 39.4165 357.914 39.0761 357.914 38.7657C357.914 37.2639 358.505 35.8422 359.566 34.7809L367.576 26.7712L367.666 26.8513C370.449 29.4044 372.682 32.5883 374.124 36.0625L374.154 36.1426L374.094 36.2026L367.536 42.7606C366.434 43.8619 364.992 44.4126 363.551 44.4126L363.541 44.4226ZM367.566 27.1417L359.726 34.9812C358.705 36.0024 358.144 37.354 358.144 38.7858C358.144 39.0761 358.174 39.4065 358.244 39.767C358.314 40.1674 358.445 40.5679 358.615 40.9584C358.765 41.2988 358.975 41.6492 359.245 42.0097L359.286 42.0698C359.456 42.29 359.576 42.4502 359.716 42.6004C360.727 43.6116 362.089 44.1723 363.521 44.1723C364.952 44.1723 366.314 43.6116 367.325 42.6004L373.823 36.1025C372.411 32.7384 370.239 29.6447 367.546 27.1417H367.566Z" fill="#592E25"/>
<path id="Vector_78" d="M350.034 36.9035C346.931 36.9035 344.397 34.3704 344.397 31.2667V20.6338L344.498 20.6137C348.122 19.8228 351.947 19.8328 355.571 20.6137L355.671 20.6338V31.2667C355.671 34.3804 353.138 36.9035 350.034 36.9035ZM344.648 20.824V31.2566C344.648 34.2303 347.061 36.6432 350.034 36.6432C353.008 36.6432 355.421 34.2303 355.421 31.2566V20.824C351.897 20.0731 348.172 20.0731 344.648 20.824Z" fill="#592E25"/>
</g>
</g>
<g id="Property 1=out bege">
<path id="Vector_79" d="M350.034 118.032C347.531 118.032 345.489 115.989 345.489 113.486C345.489 110.983 347.531 108.941 350.034 108.941C352.537 108.941 354.58 110.983 354.58 113.486C354.58 115.989 352.537 118.032 350.034 118.032ZM350.034 109.191C347.661 109.191 345.739 111.113 345.739 113.486C345.739 115.859 347.661 117.782 350.034 117.782C352.407 117.782 354.329 115.859 354.329 113.486C354.329 111.113 352.407 109.191 350.034 109.191Z" fill="#D9BFB0"/>
<g id="Group_14">
<path id="Vector_80" d="M343.556 138.737L343.486 138.717C339.732 137.746 336.178 135.903 333.204 133.39L333.094 133.3L333.194 133.2L340.112 126.582L327.557 126.702L327.517 126.642C325.645 123.438 324.453 119.794 324.083 116.089V115.949H334.265C341.504 115.949 347.381 121.616 347.651 128.845V129.316C347.541 132.8 346.11 136.124 343.597 138.667L343.546 138.717L343.556 138.737ZM333.474 133.3C336.378 135.723 339.832 137.515 343.486 138.467C345.919 135.984 347.301 132.74 347.401 129.336V128.875C347.151 121.786 341.384 116.23 334.275 116.23H324.353C324.734 119.814 325.885 123.358 327.697 126.472L340.743 126.352L333.474 133.31V133.3Z" fill="#D9BFB0"/>
<path id="Vector_81" d="M356.432 138.757L356.382 138.707C353.869 136.164 352.427 132.84 352.327 129.346L352.307 129.005C352.507 121.816 358.515 115.979 365.693 115.979H375.976L375.966 116.11C375.595 119.814 374.404 123.458 372.532 126.662L372.492 126.722H372.421L359.846 126.602L366.905 133.36L366.795 133.451C363.811 135.954 360.247 137.786 356.482 138.747L356.412 138.767L356.432 138.757ZM375.705 116.22H375.005H365.703C358.655 116.22 352.758 121.947 352.567 128.995L352.587 129.326C352.677 132.74 354.079 135.984 356.522 138.477C360.177 137.525 363.651 135.753 366.554 133.33L359.235 126.332L372.361 126.462C374.174 123.348 375.325 119.814 375.705 116.22Z" fill="#D9BFB0"/>
<path id="Vector_82" d="M336.428 111.824C334.916 111.824 333.504 111.244 332.443 110.172L325.895 103.624L325.925 103.544C327.357 100.07 329.589 96.8762 332.363 94.3231L332.453 94.243L332.533 94.3231L340.413 102.203C341.474 103.264 342.065 104.686 342.065 106.187C342.065 106.478 342.035 106.788 341.965 107.169C341.884 107.609 341.764 108.03 341.594 108.43C341.434 108.791 341.224 109.151 340.923 109.552C340.763 109.772 340.593 109.992 340.413 110.172C339.351 111.234 337.93 111.824 336.428 111.824ZM326.195 103.564L332.623 109.992C333.634 111.003 334.996 111.564 336.428 111.564C337.87 111.564 339.221 111.003 340.232 109.992C340.403 109.822 340.563 109.612 340.713 109.401C341.003 109.011 341.204 108.67 341.354 108.33C341.514 107.95 341.634 107.549 341.714 107.129C341.774 106.768 341.804 106.468 341.804 106.187C341.804 104.746 341.244 103.394 340.222 102.383L332.433 94.5934C329.74 97.0965 327.577 100.2 326.175 103.574L326.195 103.564Z" fill="#D9BFB0"/>
<path id="Vector_83" d="M363.541 111.824C362.099 111.824 360.657 111.274 359.556 110.172C359.396 110.012 359.265 109.842 359.105 109.612L359.065 109.552C358.775 109.171 358.565 108.811 358.404 108.45C358.224 108.04 358.094 107.619 358.014 107.199C357.944 106.818 357.914 106.478 357.914 106.167C357.914 104.666 358.505 103.244 359.566 102.183L367.576 94.1729L367.666 94.253C370.449 96.8061 372.682 99.99 374.124 103.464L374.154 103.544L367.546 110.162C366.444 111.264 365.002 111.814 363.561 111.814L363.541 111.824ZM367.566 94.5434L359.726 102.383C358.705 103.404 358.144 104.756 358.144 106.187C358.144 106.478 358.174 106.808 358.244 107.169C358.314 107.569 358.445 107.97 358.615 108.36C358.765 108.701 358.975 109.051 359.245 109.411L359.286 109.471C359.456 109.692 359.576 109.852 359.716 110.002C360.727 111.013 362.089 111.574 363.521 111.574C364.952 111.574 366.314 111.013 367.325 110.002L373.823 103.504C372.411 100.14 370.239 97.0464 367.546 94.5434H367.566Z" fill="#D9BFB0"/>
<path id="Vector_84" d="M350.034 104.305C346.931 104.305 344.397 101.772 344.397 98.6684V88.0355L344.498 88.0155C348.122 87.2245 351.947 87.2345 355.571 88.0155L355.671 88.0355V98.6684C355.671 101.782 353.138 104.305 350.034 104.305ZM344.648 88.2357V98.6684C344.648 101.642 347.061 104.055 350.034 104.055C353.008 104.055 355.421 101.642 355.421 98.6684V88.2357C351.897 87.4848 348.172 87.4848 344.648 88.2357Z" fill="#D9BFB0"/>
</g>
</g>
<g id="Property 1=out gray">
<path id="Vector_85" d="M350.034 185.434C347.531 185.434 345.489 183.391 345.489 180.888C345.489 178.385 347.531 176.343 350.034 176.343C352.537 176.343 354.58 178.385 354.58 180.888C354.58 183.391 352.537 185.434 350.034 185.434ZM350.034 176.593C347.661 176.593 345.739 178.515 345.739 180.888C345.739 183.261 347.661 185.183 350.034 185.183C352.407 185.183 354.329 183.261 354.329 180.888C354.329 178.515 352.407 176.593 350.034 176.593Z" fill="#D6D6D6"/>
<g id="Group_15">
<path id="Vector_86" d="M343.556 206.139L343.486 206.119C339.732 205.147 336.178 203.305 333.204 200.792L333.094 200.702L333.194 200.602L340.112 193.984L327.557 194.104L327.517 194.044C325.645 190.84 324.453 187.196 324.083 183.491V183.351H334.265C341.504 183.351 347.381 189.018 347.651 196.247V196.717C347.541 200.201 346.11 203.525 343.597 206.069L343.546 206.119L343.556 206.139ZM333.474 200.702C336.378 203.125 339.832 204.917 343.486 205.868C345.919 203.385 347.301 200.141 347.401 196.737V196.277C347.151 189.188 341.384 183.631 334.275 183.631H324.353C324.734 187.216 325.885 190.76 327.697 193.874L340.743 193.754L333.474 200.712V200.702Z" fill="#D6D6D6"/>
<path id="Vector_87" d="M356.432 206.159L356.382 206.109C353.869 203.566 352.427 200.241 352.327 196.747L352.307 196.407C352.507 189.218 358.515 183.381 365.693 183.381H375.976L375.966 183.511C375.595 187.216 374.404 190.86 372.532 194.064L372.492 194.124H372.421L359.846 194.004L366.905 200.762L366.795 200.852C363.811 203.355 360.247 205.187 356.482 206.149L356.412 206.169L356.432 206.159ZM375.705 183.621H375.005H365.703C358.655 183.621 352.758 189.348 352.567 196.397L352.587 196.727C352.677 200.141 354.079 203.385 356.522 205.878C360.177 204.927 363.651 203.155 366.554 200.732L359.235 193.734L372.361 193.864C374.174 190.75 375.325 187.216 375.705 183.621Z" fill="#D6D6D6"/>
<path id="Vector_88" d="M336.428 179.226C334.916 179.226 333.504 178.645 332.443 177.574L325.895 171.026L325.925 170.946C327.357 167.472 329.589 164.278 332.363 161.725L332.453 161.645L332.533 161.725L340.413 169.604C341.474 170.666 342.065 172.087 342.065 173.589C342.065 173.88 342.035 174.19 341.965 174.57C341.884 175.011 341.764 175.431 341.594 175.832C341.434 176.192 341.224 176.553 340.923 176.953C340.763 177.174 340.593 177.394 340.413 177.574C339.351 178.635 337.93 179.226 336.428 179.226ZM326.195 170.966L332.623 177.394C333.634 178.405 334.996 178.966 336.428 178.966C337.87 178.966 339.221 178.405 340.232 177.394C340.403 177.224 340.563 177.013 340.713 176.803C341.003 176.413 341.204 176.072 341.354 175.732C341.514 175.351 341.634 174.951 341.714 174.53C341.774 174.17 341.804 173.87 341.804 173.589C341.804 172.147 341.244 170.796 340.222 169.785L332.433 161.995C329.74 164.498 327.577 167.602 326.175 170.976L326.195 170.966Z" fill="#D6D6D6"/>
<path id="Vector_89" d="M363.541 179.226C362.099 179.226 360.657 178.675 359.556 177.574C359.396 177.414 359.265 177.244 359.105 177.013L359.065 176.953C358.775 176.573 358.565 176.212 358.404 175.852C358.224 175.441 358.094 175.021 358.014 174.6C357.944 174.22 357.914 173.88 357.914 173.569C357.914 172.067 358.505 170.646 359.566 169.584L367.576 161.575L367.666 161.655C370.449 164.208 372.682 167.392 374.124 170.866L374.154 170.946L367.546 177.564C366.444 178.665 365.002 179.216 363.561 179.216L363.541 179.226ZM367.566 161.945L359.726 169.785C358.705 170.806 358.144 172.157 358.144 173.589C358.144 173.88 358.174 174.21 358.244 174.57C358.314 174.971 358.445 175.371 358.615 175.762C358.765 176.102 358.975 176.453 359.245 176.813L359.286 176.873C359.456 177.093 359.576 177.254 359.716 177.404C360.727 178.415 362.089 178.976 363.521 178.976C364.952 178.976 366.314 178.415 367.325 177.404L373.823 170.906C372.411 167.542 370.239 164.448 367.546 161.945H367.566Z" fill="#D6D6D6"/>
<path id="Vector_90" d="M350.034 171.707C346.931 171.707 344.397 169.174 344.397 166.07V155.437L344.498 155.417C348.122 154.626 351.947 154.626 355.571 155.417L355.671 155.437V166.07C355.671 169.184 353.138 171.707 350.034 171.707ZM344.648 155.637V166.07C344.648 169.044 347.061 171.457 350.034 171.457C353.008 171.457 355.421 169.044 355.421 166.07V155.637C351.897 154.887 348.172 154.887 344.648 155.637Z" fill="#D6D6D6"/>
</g>
</g>
<g id="Property 1=out black">
<path id="Vector_91" d="M350.034 252.835C347.531 252.835 345.489 250.793 345.489 248.29C345.489 245.787 347.531 243.744 350.034 243.744C352.537 243.744 354.58 245.787 354.58 248.29C354.58 250.793 352.537 252.835 350.034 252.835ZM350.034 243.995C347.661 243.995 345.739 245.917 345.739 248.29C345.739 250.663 347.661 252.585 350.034 252.585C352.407 252.585 354.329 250.663 354.329 248.29C354.329 245.917 352.407 243.995 350.034 243.995Z" fill="#3A3A3A"/>
<g id="Group_16">
<path id="Vector_92" d="M343.556 273.55L343.486 273.53C339.732 272.559 336.178 270.717 333.204 268.204L333.094 268.114L333.194 268.014L340.112 261.396L327.557 261.516L327.517 261.456C325.645 258.252 324.453 254.607 324.083 250.903V250.763H334.265C341.504 250.763 347.381 256.43 347.651 263.658V264.129C347.541 267.613 346.11 270.937 343.597 273.48L343.546 273.53L343.556 273.55ZM333.474 268.104C336.378 270.527 339.832 272.319 343.486 273.27C345.919 270.787 347.301 267.543 347.401 264.139V263.678C347.151 256.59 341.384 251.033 334.275 251.033H324.353C324.734 254.617 325.885 258.162 327.697 261.275L340.743 261.155L333.474 268.114V268.104Z" fill="#3A3A3A"/>
<path id="Vector_93" d="M356.432 273.56L356.382 273.51C353.869 270.967 352.427 267.643 352.327 264.149L352.307 263.809C352.507 256.62 358.515 250.783 365.693 250.783H375.976L375.966 250.913C375.595 254.617 374.404 258.262 372.532 261.466L372.492 261.526H372.421L359.846 261.406L366.905 268.164L366.795 268.254C363.811 270.757 360.247 272.589 356.482 273.55L356.412 273.57L356.432 273.56ZM375.705 251.023H375.005H365.703C358.655 251.023 352.758 256.75 352.567 263.799L352.587 264.129C352.677 267.543 354.079 270.787 356.522 273.28C360.177 272.329 363.651 270.557 366.554 268.134L359.235 261.135L372.361 261.265C374.174 258.152 375.325 254.617 375.705 251.023Z" fill="#3A3A3A"/>
<path id="Vector_94" d="M336.438 246.628C334.996 246.628 333.554 246.077 332.453 244.976L325.905 238.428L325.935 238.348C327.367 234.873 329.6 231.68 332.373 229.127L332.463 229.046L332.543 229.127L340.423 237.006C341.484 238.067 342.075 239.489 342.075 240.991C342.075 241.281 342.045 241.592 341.975 241.972C341.894 242.413 341.774 242.833 341.604 243.234C341.444 243.594 341.234 243.954 340.933 244.355C340.773 244.575 340.603 244.796 340.423 244.976C339.321 246.077 337.88 246.628 336.438 246.628ZM326.195 238.368L332.623 244.796C333.634 245.807 334.996 246.367 336.428 246.367C337.87 246.367 339.221 245.807 340.232 244.796C340.403 244.625 340.563 244.415 340.713 244.205C341.003 243.814 341.204 243.474 341.354 243.133C341.514 242.753 341.634 242.353 341.714 241.932C341.774 241.572 341.804 241.271 341.804 240.991C341.804 239.549 341.244 238.198 340.222 237.186L332.433 229.397C329.74 231.9 327.577 235.004 326.175 238.378L326.195 238.368Z" fill="#3A3A3A"/>
<path id="Vector_95" d="M363.541 246.628C362.099 246.628 360.657 246.077 359.556 244.976C359.396 244.816 359.265 244.645 359.105 244.415L359.065 244.355C358.775 243.975 358.565 243.614 358.404 243.254C358.224 242.843 358.094 242.423 358.014 242.002C357.944 241.622 357.914 241.281 357.914 240.971C357.914 239.469 358.505 238.047 359.566 236.986L367.576 228.976L367.666 229.056C370.449 231.61 372.682 234.793 374.124 238.268L374.154 238.348L374.094 238.408L367.536 244.966C366.434 246.067 364.992 246.618 363.551 246.618L363.541 246.628ZM367.566 229.347L359.726 237.186C358.705 238.208 358.144 239.559 358.144 240.991C358.144 241.281 358.174 241.612 358.244 241.972C358.314 242.373 358.445 242.773 358.615 243.164C358.765 243.504 358.975 243.854 359.245 244.215L359.286 244.275C359.456 244.495 359.576 244.655 359.716 244.806C360.727 245.817 362.089 246.377 363.521 246.377C364.952 246.377 366.314 245.817 367.325 244.806L373.823 238.308C372.411 234.944 370.239 231.85 367.546 229.347H367.566Z" fill="#3A3A3A"/>
<path id="Vector_96" d="M350.034 239.109C346.931 239.109 344.397 236.576 344.397 233.472V222.839L344.498 222.819C348.122 222.028 351.947 222.028 355.571 222.819L355.671 222.839V233.472C355.671 236.586 353.138 239.109 350.034 239.109ZM344.648 223.039V233.472C344.648 236.445 347.061 238.858 350.034 238.858C353.008 238.858 355.421 236.445 355.421 233.472V223.039C351.897 222.288 348.172 222.288 344.648 223.039Z" fill="#3A3A3A"/>
</g>
</g>
</g>
</svg>
