<svg width="641" height="305" viewBox="0 0 641 305" fill="none" xmlns="http://www.w3.org/2000/svg">
<g id="Logo Pulse">
<rect x="0.5" y="0.5" width="640" height="304" rx="4.5" stroke="#8A38F5" stroke-dasharray="10 5"/>
<g id="Grow=GrowDark">
<g id="Grow">
<path id="Vector" d="M608.608 256.803L602.792 237.712H605.874L610 252.328H610.199L614.276 237.712H617.408L621.435 252.278H621.634L625.76 237.712H628.843L623.026 256.803H620.142L615.966 242.136H615.668L611.492 256.803H608.608Z" fill="#F2594B"/>
<path id="Vector_2" d="M591.804 257.2C590.081 257.2 588.569 256.79 587.268 255.97C585.975 255.15 584.964 254.002 584.235 252.527C583.514 251.052 583.154 249.329 583.154 247.357C583.154 245.368 583.514 243.632 584.235 242.149C584.964 240.666 585.975 239.514 587.268 238.694C588.569 237.873 590.081 237.463 591.804 237.463C593.528 237.463 595.036 237.873 596.329 238.694C597.629 239.514 598.64 240.666 599.361 242.149C600.09 243.632 600.455 245.368 600.455 247.357C600.455 249.329 600.09 251.052 599.361 252.527C598.64 254.002 597.629 255.15 596.329 255.97C595.036 256.79 593.528 257.2 591.804 257.2ZM591.804 254.565C593.114 254.565 594.191 254.23 595.036 253.559C595.881 252.887 596.507 252.005 596.913 250.911C597.319 249.817 597.522 248.633 597.522 247.357C597.522 246.08 597.319 244.891 596.913 243.789C596.507 242.687 595.881 241.797 595.036 241.117C594.191 240.438 593.114 240.098 591.804 240.098C590.495 240.098 589.418 240.438 588.573 241.117C587.728 241.797 587.102 242.687 586.696 243.789C586.29 244.891 586.087 246.08 586.087 247.357C586.087 248.633 586.29 249.817 586.696 250.911C587.102 252.005 587.728 252.887 588.573 253.559C589.418 254.23 590.495 254.565 591.804 254.565Z" fill="#F2594B"/>
<path id="Vector_3" d="M571.607 256.803V237.712H574.441V240.595H574.64C574.988 239.651 575.618 238.884 576.529 238.296C577.441 237.708 578.468 237.413 579.612 237.413C579.827 237.413 580.096 237.418 580.419 237.426C580.743 237.434 580.987 237.447 581.153 237.463V240.446C581.053 240.421 580.825 240.384 580.469 240.334C580.121 240.276 579.752 240.247 579.363 240.247C578.435 240.247 577.606 240.442 576.877 240.831C576.156 241.212 575.585 241.743 575.162 242.422C574.748 243.093 574.541 243.86 574.541 244.722V256.803H571.607Z" fill="#F2594B"/>
<path id="Vector_4" d="M563.395 239.303C563.121 238.466 562.761 237.716 562.314 237.053C561.874 236.382 561.348 235.81 560.735 235.338C560.13 234.865 559.442 234.505 558.672 234.256C557.901 234.008 557.056 233.884 556.136 233.884C554.628 233.884 553.257 234.273 552.022 235.052C550.788 235.831 549.806 236.978 549.077 238.495C548.348 240.011 547.983 241.871 547.983 244.075C547.983 246.279 548.352 248.14 549.089 249.656C549.827 251.172 550.825 252.32 552.085 253.099C553.344 253.878 554.761 254.267 556.335 254.267C557.794 254.267 559.078 253.956 560.188 253.335C561.307 252.705 562.177 251.819 562.798 250.675C563.428 249.523 563.743 248.169 563.743 246.611L564.688 246.81H557.031V244.075H566.726V246.81C566.726 248.906 566.278 250.729 565.384 252.278C564.497 253.828 563.271 255.029 561.705 255.883C560.147 256.728 558.357 257.151 556.335 257.151C554.081 257.151 552.101 256.62 550.394 255.56C548.696 254.499 547.37 252.991 546.417 251.036C545.472 249.08 545 246.76 545 244.075C545 242.062 545.269 240.251 545.808 238.644C546.355 237.028 547.125 235.653 548.12 234.517C549.114 233.382 550.291 232.512 551.65 231.907C553.008 231.302 554.504 231 556.136 231C557.479 231 558.73 231.203 559.89 231.609C561.058 232.007 562.098 232.574 563.01 233.312C563.929 234.041 564.696 234.915 565.309 235.934C565.922 236.945 566.345 238.068 566.577 239.303H563.395Z" fill="#F2594B"/>
</g>
<g id="Group">
<path id="Vector_5" d="M82.1299 233.342C87.1263 233.342 91.1766 229.292 91.1766 224.296C91.1766 219.299 87.1263 215.249 82.1299 215.249C77.1336 215.249 73.0833 219.299 73.0833 224.296C73.0833 229.292 77.1336 233.342 82.1299 233.342Z" fill="#F2594B"/>
<g id="Group_2">
<path id="Vector_6" d="M49.8575 229.643H29.26C30.0158 237.2 32.4184 244.577 36.2537 251.131L62.4687 250.883L47.8271 264.893C53.9071 270.037 61.1038 273.759 68.7969 275.744C73.8842 270.589 76.7945 263.855 76.9975 256.771L77.0201 255.812C76.4899 241.295 64.5104 229.643 49.8575 229.643Z" fill="#F2594B"/>
<path id="Vector_7" d="M114.222 229.643C99.4901 229.643 87.4542 241.419 87.0481 256.061L87.0819 256.76C87.285 263.867 90.2065 270.612 95.3164 275.767C103.032 273.793 110.24 270.093 116.331 264.961L101.611 250.872L128.006 251.131C131.853 244.578 134.244 237.2 135 229.631L133.274 229.654H114.222V229.643Z" fill="#F2594B"/>
<path id="Vector_8" d="M62.2659 217.325C62.6155 216.975 62.9427 216.546 63.2811 216.084C63.8902 215.272 64.3188 214.55 64.6234 213.828C64.9618 213.038 65.2212 212.192 65.3679 211.312C65.5033 210.545 65.5709 209.925 65.5709 209.338C65.5709 206.327 64.3978 203.484 62.2659 201.352L46.124 185.221C40.4388 190.467 35.938 196.919 32.9939 204.025L46.2932 217.325C50.6924 221.724 57.8553 221.724 62.2659 217.325Z" fill="#F2594B"/>
<path id="Vector_9" d="M99.4901 213.896C99.806 214.617 100.246 215.339 100.821 216.095C101.205 216.614 101.487 216.986 101.814 217.325C106.213 221.724 113.376 221.724 117.786 217.325L131.21 203.901C128.254 196.795 123.731 190.365 118.046 185.131L101.825 201.352C99.6932 203.484 98.52 206.315 98.52 209.338C98.52 209.959 98.5877 210.636 98.7231 211.403C98.881 212.237 99.1404 213.083 99.5014 213.896H99.4901Z" fill="#F2594B"/>
<path id="Vector_10" d="M70.8499 172.362V193.941C70.8499 200.168 75.9146 205.232 82.1413 205.232C88.3679 205.232 93.4327 200.168 93.4327 193.941V172.362C86.0216 170.76 78.2609 170.76 70.8499 172.362Z" fill="#F2594B"/>
</g>
</g>
<g id="Group_3">
<path id="Vector_11" d="M153 184.935H176.61V231.865C176.61 235.845 177.47 239.485 179.16 242.685C180.86 245.895 183.31 248.455 186.44 250.305C189.57 252.155 193.32 253.085 197.61 253.085H203.32V242.665H197.72C194.85 242.665 192.53 241.765 190.82 239.995C189.11 238.215 188.24 235.925 188.24 233.195V184.935H211.85V174.515H153V184.935Z" fill="#3A3A3A"/>
<path id="Vector_12" d="M260.61 198.645C256.7 196.165 251.92 194.915 246.38 194.915C240.84 194.915 236.15 196.165 231.99 198.645C227.83 201.125 224.56 204.625 222.27 209.045C219.99 213.455 218.83 218.715 218.83 224.675C218.83 230.635 220 235.805 222.32 240.255C224.64 244.715 227.91 248.225 232.04 250.705C236.16 253.175 240.91 254.435 246.15 254.435C250.56 254.435 254.49 253.635 257.83 252.055C261.17 250.485 264 248.335 266.26 245.665C268.51 243.005 270.15 239.905 271.13 236.445L271.31 235.805H261.11L260.99 236.125C259.85 239.045 258.03 241.375 255.58 243.045C253.13 244.715 249.96 245.565 246.16 245.565C243.16 245.565 240.32 244.805 237.71 243.305C235.11 241.805 232.97 239.525 231.36 236.515C230.03 234.025 229.24 230.925 229.03 227.275H272.56L272.59 226.815C272.67 225.735 272.7 224.815 272.7 224.015V221.685C272.7 216.905 271.66 212.445 269.6 208.435C267.54 204.425 264.51 201.135 260.61 198.655V198.645ZM237.63 205.875C240.28 204.475 243.14 203.775 246.15 203.775C250.72 203.775 254.58 205.185 257.61 207.965C260.53 210.645 262.16 214.375 262.46 219.065H229.1C229.41 216.325 230.14 213.955 231.28 212.005C232.85 209.325 234.98 207.265 237.62 205.875H237.63Z" fill="#3A3A3A"/>
<path id="Vector_13" d="M305.44 196.375C302.62 197.355 300.17 198.765 298.18 200.575C296.6 202.005 295.23 203.695 294.09 205.615L293.5 196.235H284.11V253.085H294.42V223.775C294.42 220.305 294.88 217.365 295.77 215.035C296.66 212.725 297.92 210.875 299.5 209.535C301.1 208.185 302.96 207.185 305.02 206.585C307.11 205.975 309.34 205.665 311.64 205.665H315.58V194.915H315.08C311.5 194.915 308.25 195.405 305.44 196.385V196.375Z" fill="#3A3A3A"/>
<path id="Vector_14" d="M369.38 198.865C365.29 196.245 360.45 194.905 354.98 194.905C351.53 194.905 348.45 195.415 345.82 196.435C343.2 197.445 340.91 198.785 339.02 200.405C337.53 201.685 336.25 203.035 335.19 204.425L334.49 196.235H325.11V277.475H335.42V245.165C337.24 247.845 339.67 250.005 342.66 251.595C346.19 253.475 350.3 254.425 354.86 254.425C360.32 254.425 365.18 253.135 369.31 250.585C373.43 248.035 376.68 244.485 378.97 240.025C381.25 235.575 382.41 230.445 382.41 224.775C382.41 219.105 381.25 213.975 378.97 209.525C376.68 205.065 373.46 201.485 369.38 198.855V198.865ZM371.99 224.665C371.99 228.845 371.21 232.525 369.66 235.575C368.12 238.615 365.95 241.025 363.19 242.745C360.44 244.455 357.26 245.325 353.76 245.325C350.26 245.325 346.99 244.455 344.27 242.745C341.55 241.025 339.42 238.615 337.91 235.575C336.4 232.515 335.63 228.845 335.63 224.655C335.63 220.465 336.4 216.885 337.91 213.795C339.42 210.715 341.55 208.285 344.27 206.575C346.99 204.865 350.18 203.995 353.76 203.995C357.34 203.995 360.44 204.865 363.19 206.575C365.94 208.285 368.11 210.725 369.66 213.795C371.21 216.895 371.99 220.545 371.99 224.655V224.665Z" fill="#3A3A3A"/>
<path id="Vector_15" d="M430.96 197.795C427.47 195.875 423.04 194.905 417.81 194.905C413.99 194.905 410.27 195.645 406.76 197.105C403.23 198.565 400.28 200.705 397.98 203.455C395.67 206.215 394.27 209.685 393.82 213.745L393.76 214.305H404.27L404.34 213.885C404.9 210.565 406.44 208.025 408.89 206.345C411.38 204.635 414.38 203.775 417.8 203.775C420.72 203.775 423.19 204.345 425.14 205.485C427.07 206.605 428.57 208.305 429.59 210.525C430.57 212.665 431.1 215.355 431.15 218.515H416.91C411.99 218.515 407.67 219.215 404.04 220.595C400.38 221.985 397.51 224.055 395.51 226.745C393.49 229.445 392.47 232.765 392.47 236.635C392.47 239.815 393.24 242.785 394.75 245.465C396.27 248.165 398.61 250.355 401.71 251.975C404.79 253.595 408.68 254.415 413.25 254.415C415.8 254.415 418.12 254.115 420.15 253.505C422.18 252.905 424 252.085 425.55 251.055C427.1 250.035 428.48 248.805 429.65 247.415C430.42 246.505 431.1 245.535 431.69 244.525L432.17 253.075H441.45V217.995C441.45 213.365 440.57 209.275 438.85 205.855C437.11 202.415 434.45 199.695 430.94 197.775L430.96 197.795ZM431.17 226.715C431.15 229.095 430.77 231.415 430.03 233.595C429.28 235.815 428.16 237.875 426.73 239.705C425.3 241.525 423.55 242.975 421.52 243.995C419.5 245.025 417.21 245.545 414.71 245.545C412.21 245.545 410.17 245.145 408.43 244.375C406.72 243.605 405.41 242.515 404.55 241.125C403.68 239.735 403.24 238.075 403.24 236.185C403.24 234.295 403.7 232.725 404.6 231.305C405.5 229.895 407.02 228.765 409.12 227.955C411.27 227.135 414.16 226.715 417.7 226.715H431.16H431.17Z" fill="#3A3A3A"/>
<path id="Vector_16" d="M468.29 188.315C468.29 185.665 468.85 183.815 469.96 182.815C471.08 181.795 472.96 181.285 475.55 181.285H480.93V172.305H474.11C470.66 172.305 467.7 172.865 465.31 173.955C462.89 175.075 461.04 176.825 459.81 179.165C458.6 181.485 457.98 184.485 457.98 188.095V196.245H449.45V205.115H457.98V253.105H468.29V205.115H482.37V196.245H468.29V188.325V188.315Z" fill="#3A3A3A"/>
<path id="Vector_17" d="M534.74 196.235L515.9 238.155L498.18 196.545L498.05 196.235H486.86L509.25 246.885H512.02L498.39 277.475H509.23L545.16 196.945L545.48 196.235H534.74Z" fill="#3A3A3A"/>
</g>
</g>
<g id="Grow=GrowLight">
<g id="Grow_2">
<path id="Vector_18" d="M608.608 115.803L602.792 96.7116H605.874L610 111.328H610.199L614.276 96.7116H617.408L621.435 111.278H621.634L625.76 96.7116H628.843L623.026 115.803H620.142L615.966 101.136H615.668L611.492 115.803H608.608Z" fill="#F2594B"/>
<path id="Vector_19" d="M591.804 116.2C590.081 116.2 588.569 115.79 587.268 114.97C585.975 114.15 584.964 113.002 584.235 111.527C583.514 110.052 583.154 108.329 583.154 106.357C583.154 104.368 583.514 102.632 584.235 101.149C584.964 99.6656 585.975 98.5139 587.268 97.6935C588.569 96.8732 590.081 96.4631 591.804 96.4631C593.528 96.4631 595.036 96.8732 596.329 97.6935C597.629 98.5139 598.64 99.6656 599.361 101.149C600.09 102.632 600.455 104.368 600.455 106.357C600.455 108.329 600.09 110.052 599.361 111.527C598.64 113.002 597.629 114.15 596.329 114.97C595.036 115.79 593.528 116.2 591.804 116.2ZM591.804 113.565C593.114 113.565 594.191 113.23 595.036 112.559C595.881 111.887 596.507 111.005 596.913 109.911C597.319 108.817 597.522 107.633 597.522 106.357C597.522 105.08 597.319 103.891 596.913 102.789C596.507 101.687 595.881 100.797 595.036 100.117C594.191 99.4377 593.114 99.098 591.804 99.098C590.495 99.098 589.418 99.4377 588.573 100.117C587.728 100.797 587.102 101.687 586.696 102.789C586.29 103.891 586.087 105.08 586.087 106.357C586.087 107.633 586.29 108.817 586.696 109.911C587.102 111.005 587.728 111.887 588.573 112.559C589.418 113.23 590.495 113.565 591.804 113.565Z" fill="#F2594B"/>
<path id="Vector_20" d="M571.607 115.803V96.7116H574.441V99.5952H574.64C574.988 98.6506 575.618 97.8841 576.529 97.2958C577.441 96.7075 578.468 96.4134 579.612 96.4134C579.827 96.4134 580.096 96.4175 580.419 96.4258C580.743 96.4341 580.987 96.4465 581.153 96.4631V99.446C581.053 99.4212 580.825 99.3839 580.469 99.3342C580.121 99.2762 579.752 99.2472 579.363 99.2472C578.435 99.2472 577.606 99.4419 576.877 99.8313C576.156 100.212 575.585 100.743 575.162 101.422C574.748 102.093 574.541 102.86 574.541 103.722V115.803H571.607Z" fill="#F2594B"/>
<path id="Vector_21" d="M563.395 98.3026C563.121 97.4657 562.761 96.7158 562.314 96.0529C561.874 95.3817 561.348 94.81 560.735 94.3377C560.13 93.8654 559.442 93.505 558.672 93.2564C557.901 93.0078 557.056 92.8835 556.136 92.8835C554.628 92.8835 553.257 93.273 552.022 94.0518C550.788 94.8307 549.806 95.9783 549.077 97.4947C548.348 99.011 547.983 100.871 547.983 103.075C547.983 105.279 548.352 107.14 549.089 108.656C549.827 110.172 550.825 111.32 552.085 112.099C553.344 112.878 554.761 113.267 556.335 113.267C557.794 113.267 559.078 112.956 560.188 112.335C561.307 111.705 562.177 110.819 562.798 109.675C563.428 108.523 563.743 107.169 563.743 105.611L564.688 105.81H557.031V103.075H566.726V105.81C566.726 107.906 566.278 109.729 565.384 111.278C564.497 112.828 563.271 114.029 561.705 114.883C560.147 115.728 558.357 116.151 556.335 116.151C554.081 116.151 552.101 115.62 550.394 114.56C548.696 113.499 547.37 111.991 546.417 110.036C545.472 108.08 545 105.76 545 103.075C545 101.062 545.269 99.2513 545.808 97.6438C546.355 96.0281 547.125 94.6526 548.12 93.5174C549.114 92.3822 550.291 91.5122 551.65 90.9073C553.008 90.3024 554.504 90 556.136 90C557.479 90 558.73 90.203 559.89 90.609C561.058 91.0067 562.098 91.5743 563.01 92.3118C563.929 93.041 564.696 93.9151 565.309 94.9343C565.922 95.9452 566.345 97.0679 566.577 98.3026H563.395Z" fill="#F2594B"/>
</g>
<g id="Group_4">
<path id="Vector_22" d="M82.1299 92.3425C87.1263 92.3425 91.1766 88.2921 91.1766 83.2958C91.1766 78.2995 87.1263 74.2491 82.1299 74.2491C77.1336 74.2491 73.0833 78.2995 73.0833 83.2958C73.0833 88.2921 77.1336 92.3425 82.1299 92.3425Z" fill="#F2594B"/>
<g id="Group_5">
<path id="Vector_23" d="M49.8575 88.6426H29.26C30.0158 96.2003 32.4184 103.577 36.2537 110.131L62.4687 109.883L47.8271 123.893C53.9071 129.037 61.1038 132.759 68.7969 134.745C73.8842 129.589 76.7945 122.855 76.9975 115.771L77.0201 114.813C76.4899 100.295 64.5104 88.6426 49.8575 88.6426Z" fill="#F2594B"/>
<path id="Vector_24" d="M114.222 88.6426C99.4901 88.6426 87.4542 100.419 87.0481 115.061L87.0819 115.76C87.285 122.867 90.2065 129.612 95.3164 134.767C103.032 132.793 110.24 129.093 116.331 123.961L101.611 109.872L128.006 110.131C131.853 103.578 134.244 96.2003 135 88.6313L133.274 88.6539H114.222V88.6426Z" fill="#F2594B"/>
<path id="Vector_25" d="M62.2659 76.3247C62.6155 75.975 62.9427 75.5464 63.2811 75.0839C63.8902 74.2717 64.3188 73.5498 64.6234 72.8278C64.9618 72.0382 65.2212 71.1922 65.3679 70.3124C65.5033 69.5453 65.5709 68.9249 65.5709 68.3384C65.5709 65.3266 64.3978 62.484 62.2659 60.352L46.124 44.2214C40.4388 49.4667 35.938 55.9189 32.9939 63.0254L46.2932 76.3247C50.6924 80.7239 57.8553 80.7239 62.2659 76.3247Z" fill="#F2594B"/>
<path id="Vector_26" d="M99.4901 72.8955C99.806 73.6175 100.246 74.3394 100.821 75.0952C101.205 75.614 101.487 75.9863 101.814 76.3247C106.213 80.7239 113.376 80.7239 117.786 76.3247L131.21 62.9013C128.254 55.7948 123.731 49.3652 118.046 44.1312L101.825 60.352C99.6932 62.484 98.52 65.3153 98.52 68.3384C98.52 68.9588 98.5877 69.6356 98.7231 70.4026C98.881 71.2374 99.1404 72.0834 99.5014 72.8955H99.4901Z" fill="#F2594B"/>
<path id="Vector_27" d="M70.8499 31.3621V52.941C70.8499 59.1676 75.9146 64.2324 82.1413 64.2324C88.3679 64.2324 93.4327 59.1676 93.4327 52.941V31.3621C86.0216 29.7603 78.2609 29.7603 70.8499 31.3621Z" fill="#F2594B"/>
</g>
</g>
<g id="Group_6">
<path id="Vector_28" d="M153 43.935H176.61V90.865C176.61 94.845 177.47 98.485 179.16 101.685C180.86 104.895 183.31 107.455 186.44 109.305C189.57 111.155 193.32 112.085 197.61 112.085H203.32V101.665H197.72C194.85 101.665 192.53 100.765 190.82 98.995C189.11 97.215 188.24 94.925 188.24 92.195V43.935H211.85V33.515H153V43.935Z" fill="#D6D6D6"/>
<path id="Vector_29" d="M260.61 57.645C256.7 55.165 251.92 53.915 246.38 53.915C240.84 53.915 236.15 55.165 231.99 57.645C227.83 60.125 224.56 63.625 222.27 68.045C219.99 72.455 218.83 77.715 218.83 83.675C218.83 89.635 220 94.805 222.32 99.255C224.64 103.715 227.91 107.225 232.04 109.705C236.16 112.175 240.91 113.435 246.15 113.435C250.56 113.435 254.49 112.635 257.83 111.055C261.17 109.485 264 107.335 266.26 104.665C268.51 102.005 270.15 98.905 271.13 95.445L271.31 94.805H261.11L260.99 95.125C259.85 98.045 258.03 100.375 255.58 102.045C253.13 103.715 249.96 104.565 246.16 104.565C243.16 104.565 240.32 103.805 237.71 102.305C235.11 100.805 232.97 98.525 231.36 95.515C230.03 93.025 229.24 89.925 229.03 86.275H272.56L272.59 85.815C272.67 84.735 272.7 83.815 272.7 83.015V80.685C272.7 75.905 271.66 71.445 269.6 67.435C267.54 63.425 264.51 60.135 260.61 57.655V57.645ZM237.63 64.875C240.28 63.475 243.14 62.775 246.15 62.775C250.72 62.775 254.58 64.185 257.61 66.965C260.53 69.645 262.16 73.375 262.46 78.065H229.1C229.41 75.325 230.14 72.955 231.28 71.005C232.85 68.325 234.98 66.265 237.62 64.875H237.63Z" fill="#D6D6D6"/>
<path id="Vector_30" d="M305.44 55.375C302.62 56.355 300.17 57.765 298.18 59.575C296.6 61.005 295.23 62.695 294.09 64.615L293.5 55.235H284.11V112.085H294.42V82.775C294.42 79.305 294.88 76.365 295.77 74.035C296.66 71.725 297.92 69.875 299.5 68.535C301.1 67.185 302.96 66.185 305.02 65.585C307.11 64.975 309.34 64.665 311.64 64.665H315.58V53.915H315.08C311.5 53.915 308.25 54.405 305.44 55.385V55.375Z" fill="#D6D6D6"/>
<path id="Vector_31" d="M369.38 57.865C365.29 55.245 360.45 53.905 354.98 53.905C351.53 53.905 348.45 54.415 345.82 55.435C343.2 56.445 340.91 57.785 339.02 59.405C337.53 60.685 336.25 62.035 335.19 63.425L334.49 55.235H325.11V136.475H335.42V104.165C337.24 106.845 339.67 109.005 342.66 110.595C346.19 112.475 350.3 113.425 354.86 113.425C360.32 113.425 365.18 112.135 369.31 109.585C373.43 107.035 376.68 103.485 378.97 99.025C381.25 94.575 382.41 89.445 382.41 83.775C382.41 78.105 381.25 72.975 378.97 68.525C376.68 64.065 373.46 60.485 369.38 57.855V57.865ZM371.99 83.665C371.99 87.845 371.21 91.525 369.66 94.575C368.12 97.615 365.95 100.025 363.19 101.745C360.44 103.455 357.26 104.325 353.76 104.325C350.26 104.325 346.99 103.455 344.27 101.745C341.55 100.025 339.42 97.615 337.91 94.575C336.4 91.515 335.63 87.845 335.63 83.655C335.63 79.465 336.4 75.885 337.91 72.795C339.42 69.715 341.55 67.285 344.27 65.575C346.99 63.865 350.18 62.995 353.76 62.995C357.34 62.995 360.44 63.865 363.19 65.575C365.94 67.285 368.11 69.725 369.66 72.795C371.21 75.895 371.99 79.545 371.99 83.655V83.665Z" fill="#D6D6D6"/>
<path id="Vector_32" d="M430.96 56.795C427.47 54.875 423.04 53.905 417.81 53.905C413.99 53.905 410.27 54.645 406.76 56.105C403.23 57.565 400.28 59.705 397.98 62.455C395.67 65.215 394.27 68.685 393.82 72.745L393.76 73.305H404.27L404.34 72.885C404.9 69.565 406.44 67.025 408.89 65.345C411.38 63.635 414.38 62.775 417.8 62.775C420.72 62.775 423.19 63.345 425.14 64.485C427.07 65.605 428.57 67.305 429.59 69.525C430.57 71.665 431.1 74.355 431.15 77.515H416.91C411.99 77.515 407.67 78.215 404.04 79.595C400.38 80.985 397.51 83.055 395.51 85.745C393.49 88.445 392.47 91.765 392.47 95.635C392.47 98.815 393.24 101.785 394.75 104.465C396.27 107.165 398.61 109.355 401.71 110.975C404.79 112.595 408.68 113.415 413.25 113.415C415.8 113.415 418.12 113.115 420.15 112.505C422.18 111.905 424 111.085 425.55 110.055C427.1 109.035 428.48 107.805 429.65 106.415C430.42 105.505 431.1 104.535 431.69 103.525L432.17 112.075H441.45V76.995C441.45 72.365 440.57 68.275 438.85 64.855C437.11 61.415 434.45 58.695 430.94 56.775L430.96 56.795ZM431.17 85.715C431.15 88.095 430.77 90.415 430.03 92.595C429.28 94.815 428.16 96.875 426.73 98.705C425.3 100.525 423.55 101.975 421.52 102.995C419.5 104.025 417.21 104.545 414.71 104.545C412.21 104.545 410.17 104.145 408.43 103.375C406.72 102.605 405.41 101.515 404.55 100.125C403.68 98.735 403.24 97.075 403.24 95.185C403.24 93.295 403.7 91.725 404.6 90.305C405.5 88.895 407.02 87.765 409.12 86.955C411.27 86.135 414.16 85.715 417.7 85.715H431.16H431.17Z" fill="#D6D6D6"/>
<path id="Vector_33" d="M468.29 47.315C468.29 44.665 468.85 42.815 469.96 41.815C471.08 40.795 472.96 40.285 475.55 40.285H480.93V31.305H474.11C470.66 31.305 467.7 31.865 465.31 32.955C462.89 34.075 461.04 35.825 459.81 38.165C458.6 40.485 457.98 43.485 457.98 47.095V55.245H449.45V64.115H457.98V112.105H468.29V64.115H482.37V55.245H468.29V47.325V47.315Z" fill="#D6D6D6"/>
<path id="Vector_34" d="M534.74 55.235L515.9 97.155L498.18 55.545L498.05 55.235H486.86L509.25 105.885H512.02L498.39 136.475H509.23L545.16 55.945L545.48 55.235H534.74Z" fill="#D6D6D6"/>
</g>
</g>
</g>
</svg>
