<svg preserveAspectRatio="none" width="100%" height="100%" overflow="visible" style="display: block;" viewBox="0 0 52.4443 52.7284" fill="none" xmlns="http://www.w3.org/2000/svg">
<g id="Group">
<path id="Vector" d="M26.2221 31.3437C28.7002 31.3437 30.709 29.302 30.709 26.7835C30.709 24.2651 28.7002 22.2234 26.2221 22.2234C23.7441 22.2234 21.7352 24.2651 21.7352 26.7835C21.7352 29.302 23.7441 31.3437 26.2221 31.3437Z" fill="var(--fill-0, white)"/>
<g id="Group_2">
<path id="Vector_2" d="M10.2158 29.4787H0C0.374842 33.2882 1.5665 37.0068 3.46869 40.3104L16.4707 40.1853L9.20881 47.2472C12.2243 49.84 15.7937 51.7163 19.6093 52.717C22.1325 50.1186 23.5759 46.7241 23.6766 43.1533L23.6878 42.67C23.4248 35.3522 17.4833 29.4787 10.2158 29.4787Z" fill="var(--fill-0, white)"/>
<path id="Vector_3" d="M42.1389 29.4787C34.8323 29.4787 28.8628 35.4148 28.6614 42.7951L28.6782 43.1476C28.7789 46.7298 30.2279 50.1299 32.7623 52.7284C36.589 51.7334 40.164 49.8684 43.1851 47.2813L35.8841 40.1796L48.9756 40.3104C50.8834 37.0068 52.0694 33.2882 52.4443 29.473L51.5883 29.4844H42.1389V29.4787Z" fill="var(--fill-0, white)"/>
<path id="Vector_4" d="M16.3701 23.2696C16.5435 23.0934 16.7057 22.8773 16.8736 22.6442C17.1757 22.2348 17.3883 21.8709 17.5393 21.507C17.7072 21.109 17.8358 20.6825 17.9086 20.239C17.9757 19.8524 18.0093 19.5397 18.0093 19.244C18.0093 17.7259 17.4274 16.293 16.3701 15.2184L8.3641 7.08751C5.54439 9.73146 3.31212 12.9838 1.85192 16.5659L8.44802 23.2696C10.6299 25.4872 14.1825 25.4872 16.3701 23.2696Z" fill="var(--fill-0, white)"/>
<path id="Vector_5" d="M34.8323 21.5411C34.989 21.905 35.2072 22.2689 35.4925 22.6499C35.6827 22.9114 35.8226 23.0991 35.9848 23.2696C38.1667 25.4872 41.7193 25.4872 43.9069 23.2696L50.5645 16.5034C49.0987 12.9213 46.8552 9.68029 44.0355 7.04202L35.9904 15.2184C34.933 16.293 34.3512 17.7202 34.3512 19.244C34.3512 19.5567 34.3848 19.8979 34.4519 20.2845C34.5302 20.7053 34.6589 21.1317 34.8379 21.5411H34.8323Z" fill="var(--fill-0, white)"/>
<path id="Vector_6" d="M20.6275 0.605555V11.4827C20.6275 14.6214 23.1395 17.1743 26.2277 17.1743C29.316 17.1743 31.828 14.6214 31.828 11.4827V0.605555C28.1523 -0.201846 24.3032 -0.201846 20.6275 0.605555Z" fill="var(--fill-0, white)"/>
</g>
</g>
</svg>
