<svg preserveAspectRatio="none" width="100%" height="100%" overflow="visible" style="display: block;" viewBox="0 0 83.8428 26.2003" fill="none" xmlns="http://www.w3.org/2000/svg">
<g id="Grow">
<path id="Vector" d="M63.6084 25.8026L57.7916 6.71165H60.874L65.0004 21.3281H65.1993L69.276 6.71165H72.4081L76.4351 21.2784H76.634L80.7604 6.71165H83.8428L78.026 25.8026H75.1425L70.9663 11.1364H70.668L66.4919 25.8026H63.6084Z" fill="var(--fill-0, #F2594B)"/>
<path id="Vector_2" d="M46.8044 26.2003C45.0809 26.2003 43.5687 25.7901 42.2678 24.9698C40.9752 24.1495 39.9643 23.0019 39.2351 21.527C38.5142 20.0521 38.1538 18.3286 38.1538 16.3565C38.1538 14.3679 38.5142 12.632 39.2351 11.1488C39.9643 9.66561 40.9752 8.51385 42.2678 7.69354C43.5687 6.87323 45.0809 6.46307 46.8044 6.46307C48.5279 6.46307 50.0359 6.87323 51.3285 7.69354C52.6294 8.51385 53.6403 9.66561 54.3612 11.1488C55.0904 12.632 55.4549 14.3679 55.4549 16.3565C55.4549 18.3286 55.0904 20.0521 54.3612 21.527C53.6403 23.0019 52.6294 24.1495 51.3285 24.9698C50.0359 25.7901 48.5279 26.2003 46.8044 26.2003ZM46.8044 23.5653C48.1136 23.5653 49.1907 23.2298 50.0359 22.5586C50.8811 21.8874 51.5067 21.005 51.9127 19.9112C52.3187 18.8175 52.5217 17.6326 52.5217 16.3565C52.5217 15.0805 52.3187 13.8915 51.9127 12.7894C51.5067 11.6874 50.8811 10.7966 50.0359 10.1172C49.1907 9.43774 48.1136 9.09802 46.8044 9.09802C45.4952 9.09802 44.418 9.43774 43.5728 10.1172C42.7277 10.7966 42.1021 11.6874 41.6961 12.7894C41.2901 13.8915 41.087 15.0805 41.087 16.3565C41.087 17.6326 41.2901 18.8175 41.6961 19.9112C42.1021 21.005 42.7277 21.8874 43.5728 22.5586C44.418 23.2298 45.4952 23.5653 46.8044 23.5653Z" fill="var(--fill-0, #F2594B)"/>
<path id="Vector_3" d="M26.6073 25.8026V6.71165H29.4411V9.59517H29.64C29.988 8.65057 30.6177 7.88412 31.5292 7.29581C32.4406 6.70751 33.4681 6.41335 34.6116 6.41335C34.827 6.41335 35.0963 6.4175 35.4194 6.42578C35.7426 6.43407 35.987 6.4465 36.1528 6.46307V9.44602C36.0533 9.42117 35.8255 9.38388 35.4692 9.33416C35.1211 9.27616 34.7524 9.24716 34.363 9.24716C33.435 9.24716 32.6064 9.44188 31.8772 9.83132C31.1563 10.2125 30.5846 10.7428 30.162 11.4222C29.7477 12.0934 29.5405 12.8598 29.5405 13.7216V25.8026H26.6073Z" fill="var(--fill-0, #F2594B)"/>
<path id="Vector_4" d="M18.3949 8.30256C18.1215 7.46567 17.761 6.71579 17.3136 6.05291C16.8744 5.38175 16.3483 4.81001 15.7351 4.33771C15.1302 3.86541 14.4425 3.50497 13.6719 3.25639C12.9013 3.00781 12.0561 2.88352 11.1364 2.88352C9.62835 2.88352 8.25702 3.27296 7.02241 4.05185C5.7878 4.83073 4.80591 5.97834 4.07674 7.49467C3.34757 9.01101 2.98299 10.8712 2.98299 13.0753C2.98299 15.2794 3.35172 17.1396 4.08917 18.6559C4.82662 20.1722 5.82508 21.3198 7.08455 22.0987C8.34402 22.8776 9.76093 23.267 11.3353 23.267C12.7936 23.267 14.0779 22.9563 15.1882 22.3349C16.3069 21.7051 17.1769 20.8185 17.7983 19.6751C18.4281 18.5233 18.7429 17.1686 18.7429 15.6108L19.6875 15.8097H12.0313V13.0753H21.7259V15.8097C21.7259 17.906 21.2784 19.7289 20.3836 21.2784C19.497 22.8279 18.2706 24.0294 16.7046 24.8828C15.1468 25.728 13.357 26.1506 11.3353 26.1506C9.08148 26.1506 7.10113 25.6203 5.39421 24.5597C3.69559 23.4991 2.36983 21.991 1.41694 20.0355C0.472337 18.08 3.62396e-05 15.7599 3.62396e-05 13.0753C3.62396e-05 11.0618 0.269331 9.2513 0.80792 7.64382C1.35479 6.02805 2.12539 4.65258 3.11971 3.5174C4.11403 2.38222 5.29064 1.51219 6.64954 0.907316C8.00844 0.302439 9.50406 0 11.1364 0C12.4787 0 13.7299 0.203007 14.89 0.60902C16.0583 1.00675 17.0982 1.57434 18.0096 2.31179C18.9294 3.04096 19.6958 3.91513 20.309 4.9343C20.9221 5.94519 21.3447 7.06795 21.5767 8.30256H18.3949Z" fill="var(--fill-0, #F2594B)"/>
</g>
</svg>
