<svg preserveAspectRatio="none" width="100%" height="100%" overflow="visible" style="display: block;" viewBox="0 0 105.74 104.606" fill="none" xmlns="http://www.w3.org/2000/svg">
<g id="Group">
<path id="Vector" d="M52.8699 62.1818C57.8663 62.1818 61.9166 58.1314 61.9166 53.1351C61.9166 48.1387 57.8663 44.0884 52.8699 44.0884C47.8736 44.0884 43.8233 48.1387 43.8233 53.1351C43.8233 58.1314 47.8736 62.1818 52.8699 62.1818Z" fill="var(--fill-0, #F2594B)"/>
<g id="Group_2">
<path id="Vector_2" d="M20.5975 58.4819H0C0.755769 66.0396 3.15844 73.4168 6.99368 79.9705L33.2087 79.7224L18.5671 93.7323C24.6471 98.876 31.8438 102.598 39.5369 104.584C44.6242 99.4288 47.5345 92.6945 47.7375 85.6106L47.7601 84.6518C47.2299 70.1343 35.2504 58.4819 20.5975 58.4819Z" fill="var(--fill-0, #F2594B)"/>
<path id="Vector_3" d="M84.9619 58.4819C70.2301 58.4819 58.1942 70.2583 57.7881 84.9L57.8219 85.5993C58.025 92.7058 60.9465 99.4513 66.0564 104.606C73.772 102.632 80.9801 98.9325 87.0713 93.8L72.3507 79.7111L98.7463 79.9705C102.593 73.4168 104.984 66.0396 105.74 58.4706L104.014 58.4932H84.9619V58.4819Z" fill="var(--fill-0, #F2594B)"/>
<path id="Vector_4" d="M33.0059 46.164C33.3555 45.8143 33.6827 45.3856 34.0211 44.9232C34.6302 44.111 35.0588 43.3891 35.3634 42.6671C35.7018 41.8775 35.9612 41.0315 36.1079 40.1517C36.2432 39.3846 36.3109 38.7642 36.3109 38.1776C36.3109 35.1658 35.1378 32.3232 33.0059 30.1913L16.864 14.0607C11.1788 19.306 6.67801 25.7582 3.73389 32.8647L17.0332 46.164C21.4324 50.5632 28.5953 50.5632 33.0059 46.164Z" fill="var(--fill-0, #F2594B)"/>
<path id="Vector_5" d="M70.2301 42.7348C70.5459 43.4567 70.9859 44.1787 71.5612 44.9344C71.9447 45.4533 72.2267 45.8256 72.5538 46.164C76.9531 50.5632 84.116 50.5632 88.5265 46.164L101.95 32.7406C98.9945 25.6341 94.4711 19.2044 88.7859 13.9705L72.5651 30.1913C70.4332 32.3232 69.26 35.1546 69.26 38.1776C69.26 38.798 69.3277 39.4749 69.4631 40.2419C69.621 41.0766 69.8804 41.9226 70.2414 42.7348H70.2301Z" fill="var(--fill-0, #F2594B)"/>
<path id="Vector_6" d="M41.5899 1.20134V22.7802C41.5899 29.0069 46.6546 34.0717 52.8813 34.0717C59.1079 34.0717 64.1727 29.0069 64.1727 22.7802V1.20134C56.7616 -0.400437 49.0009 -0.400437 41.5899 1.20134Z" fill="var(--fill-0, #F2594B)"/>
</g>
</g>
</svg>
