<svg preserveAspectRatio="none" width="100%" height="100%" overflow="visible" style="display: block;" viewBox="0 0 392.48 105.17" fill="none" xmlns="http://www.w3.org/2000/svg">
<g id="Group">
<path id="Vector" d="M0 12.63H23.61V59.56C23.61 63.54 24.47 67.18 26.16 70.38C27.86 73.59 30.31 76.15 33.44 78C36.57 79.85 40.32 80.78 44.61 80.78H50.32V70.36H44.72C41.85 70.36 39.53 69.46 37.82 67.69C36.11 65.91 35.24 63.62 35.24 60.89V12.63H58.85V2.21H0V12.63Z" fill="var(--fill-0, #3A3A3A)"/>
<path id="Vector_2" d="M107.61 26.34C103.7 23.86 98.92 22.61 93.38 22.61C87.84 22.61 83.15 23.86 78.99 26.34C74.83 28.82 71.56 32.32 69.27 36.74C66.99 41.15 65.83 46.41 65.83 52.37C65.83 58.33 67 63.5 69.32 67.95C71.64 72.41 74.9099 75.92 79.0399 78.4C83.1599 80.87 87.9099 82.13 93.1499 82.13C97.5599 82.13 101.49 81.33 104.83 79.75C108.17 78.18 111 76.03 113.26 73.36C115.51 70.7 117.15 67.6 118.13 64.14L118.31 63.5H108.11L107.99 63.82C106.85 66.74 105.03 69.07 102.58 70.74C100.13 72.41 96.96 73.26 93.16 73.26C90.16 73.26 87.32 72.5 84.71 71C82.11 69.5 79.97 67.22 78.36 64.21C77.03 61.72 76.24 58.62 76.03 54.97H119.56L119.59 54.51C119.67 53.43 119.7 52.51 119.7 51.71V49.38C119.7 44.6 118.66 40.14 116.6 36.13C114.54 32.12 111.51 28.83 107.61 26.35V26.34ZM84.63 33.57C87.28 32.17 90.1399 31.47 93.1499 31.47C97.7199 31.47 101.58 32.88 104.61 35.66C107.53 38.34 109.16 42.07 109.46 46.76H76.1C76.41 44.02 77.14 41.65 78.28 39.7C79.85 37.02 81.9799 34.96 84.6199 33.57H84.63Z" fill="var(--fill-0, #3A3A3A)"/>
<path id="Vector_3" d="M152.44 24.07C149.62 25.05 147.17 26.46 145.18 28.27C143.6 29.7 142.23 31.39 141.09 33.31L140.5 23.93H131.11V80.78H141.42V51.47C141.42 48 141.88 45.06 142.77 42.73C143.66 40.42 144.92 38.57 146.5 37.23C148.1 35.88 149.96 34.88 152.02 34.28C154.11 33.67 156.34 33.36 158.64 33.36H162.58V22.61H162.08C158.5 22.61 155.25 23.1 152.44 24.08V24.07Z" fill="var(--fill-0, #3A3A3A)"/>
<path id="Vector_4" d="M216.38 26.56C212.29 23.94 207.45 22.6 201.98 22.6C198.53 22.6 195.45 23.11 192.82 24.13C190.2 25.14 187.91 26.48 186.02 28.1C184.53 29.38 183.25 30.73 182.19 32.12L181.49 23.93H172.11V105.17H182.42V72.86C184.24 75.54 186.67 77.7 189.66 79.29C193.19 81.17 197.3 82.12 201.86 82.12C207.32 82.12 212.18 80.83 216.31 78.28C220.43 75.73 223.68 72.18 225.97 67.72C228.25 63.27 229.41 58.14 229.41 52.47C229.41 46.8 228.25 41.67 225.97 37.22C223.68 32.76 220.46 29.18 216.38 26.55V26.56ZM218.99 52.36C218.99 56.54 218.21 60.22 216.66 63.27C215.12 66.31 212.95 68.72 210.19 70.44C207.44 72.15 204.26 73.02 200.76 73.02C197.26 73.02 193.99 72.15 191.27 70.44C188.55 68.72 186.42 66.31 184.91 63.27C183.4 60.21 182.63 56.54 182.63 52.35C182.63 48.16 183.4 44.58 184.91 41.49C186.42 38.41 188.55 35.98 191.27 34.27C193.99 32.56 197.18 31.69 200.76 31.69C204.34 31.69 207.44 32.56 210.19 34.27C212.94 35.98 215.11 38.42 216.66 41.49C218.21 44.59 218.99 48.24 218.99 52.35V52.36Z" fill="var(--fill-0, #3A3A3A)"/>
<path id="Vector_5" d="M277.96 25.49C274.47 23.57 270.04 22.6 264.81 22.6C260.99 22.6 257.27 23.34 253.76 24.8C250.23 26.26 247.28 28.4 244.98 31.15C242.67 33.91 241.27 37.38 240.82 41.44L240.76 42H251.27L251.34 41.58C251.9 38.26 253.44 35.72 255.89 34.04C258.38 32.33 261.38 31.47 264.8 31.47C267.72 31.47 270.19 32.04 272.14 33.18C274.07 34.3 275.57 36 276.59 38.22C277.57 40.36 278.1 43.05 278.15 46.21H263.91C258.99 46.21 254.67 46.91 251.04 48.29C247.38 49.68 244.51 51.75 242.51 54.44C240.49 57.14 239.47 60.46 239.47 64.33C239.47 67.51 240.24 70.48 241.75 73.16C243.27 75.86 245.61 78.05 248.71 79.67C251.79 81.29 255.68 82.11 260.25 82.11C262.8 82.11 265.12 81.81 267.15 81.2C269.18 80.6 271 79.78 272.55 78.75C274.1 77.73 275.48 76.5 276.65 75.11C277.42 74.2 278.1 73.23 278.69 72.22L279.17 80.77H288.45V45.69C288.45 41.06 287.57 36.97 285.85 33.55C284.11 30.11 281.45 27.39 277.94 25.47L277.96 25.49ZM278.17 54.41C278.15 56.79 277.77 59.11 277.03 61.29C276.28 63.51 275.16 65.57 273.73 67.4C272.3 69.22 270.55 70.67 268.52 71.69C266.5 72.72 264.21 73.24 261.71 73.24C259.21 73.24 257.17 72.84 255.43 72.07C253.72 71.3 252.41 70.21 251.55 68.82C250.68 67.43 250.24 65.77 250.24 63.88C250.24 61.99 250.7 60.42 251.6 59C252.5 57.59 254.02 56.46 256.12 55.65C258.27 54.83 261.16 54.41 264.7 54.41H278.16H278.17Z" fill="var(--fill-0, #3A3A3A)"/>
<path id="Vector_6" d="M315.29 16.01C315.29 13.36 315.85 11.51 316.96 10.51C318.08 9.49 319.96 8.98 322.55 8.98H327.93V0H321.11C317.66 0 314.7 0.56 312.31 1.65C309.89 2.77 308.04 4.52 306.81 6.86C305.6 9.18 304.98 12.18 304.98 15.79V23.94H296.45V32.81H304.98V80.8H315.29V32.81H329.37V23.94H315.29V16.02V16.01Z" fill="var(--fill-0, #3A3A3A)"/>
<path id="Vector_7" d="M381.74 23.93L362.9 65.85L345.18 24.24L345.05 23.93H333.86L356.25 74.58H359.02L345.39 105.17H356.23L392.16 24.64L392.48 23.93H381.74Z" fill="var(--fill-0, #3A3A3A)"/>
</g>
</svg>
